<?xml version="1.0" encoding="UTF-8"?><svg xmlns="http://www.w3.org/2000/svg" viewBox="0 0 278.93 392.95"><defs><style>.d{fill:#008a03;}.e{fill:#754c24;stroke-width:9px;}.e,.f{stroke:#b36a15;stroke-miterlimit:10;}.f{fill:#f7931e;stroke-width:11px;}.g{fill:#8900f4;}.h{fill:#b680e0;}</style></defs><g id="a"/><g id="b"><g id="c"><polygon class="f" points="44.85 252.82 59.87 382.25 170.87 387.25 200.89 252.82 44.85 252.82"/><ellipse class="e" cx="122.87" cy="243.75" rx="87" ry="20.5"/><path class="d" d="M128.13,246.24l.84-82.24,.83-81.99,.47-46.25c.02-2.35-2.09-4.61-4.5-4.5s-4.47,1.98-4.5,4.5l-.84,82.24-.83,81.99-.47,46.25c-.02,2.35,2.09,4.61,4.5,4.5s4.47-1.98,4.5-4.5h0Z"/><path class="d" d="M128.68,39.41c.11-.15,1.04-1.39,.49-.69,.29-.36,.58-.72,.88-1.07,.69-.8,1.41-1.58,2.15-2.32,.66-.65,1.33-1.28,2.03-1.89,.35-.3,.7-.6,1.06-.9,.2-.17,.41-.33,.62-.5,.65-.52-.22,.15,.19-.15,3.36-2.37,6.8-4.51,10.46-6.39s7.77-3.73,11.72-5.43c.5-.21,.99-.43,1.49-.64-.61,.26,.68-.29,.84-.35,1.14-.47,2.28-.94,3.43-1.39,2.22-.88,4.46-1.72,6.72-2.5,4.35-1.52,8.77-2.84,13.26-3.89,2.31-.54,4.64-1,6.98-1.37,.53-.08,1.06-.16,1.59-.24,.11-.02,.88-.11,.17-.02,.23-.03,.46-.06,.68-.08,1.22-.14,2.44-.26,3.66-.36,4.07-.31,8.16-.3,12.22,.07,.91,.08,1.82,.18,2.73,.3-.99-.13,.46,.08,.74,.12,.52,.08,1.03,.17,1.54,.27,1.99,.37,3.96,.82,5.9,1.37,2.13,.6,4.18,1.36,6.25,2.15,.48,.18-.12-.05-.18-.08,.3,.13,.59,.26,.89,.39,.53,.24,1.05,.48,1.58,.74,.98,.48,1.95,.99,2.9,1.53,1.9,1.08,3.71,2.29,5.47,3.59,.41,.3-.1-.07-.15-.11,.3,.24,.6,.48,.9,.73,.4,.33,.79,.66,1.17,1.01,.87,.77,1.7,1.58,2.52,2.42,1.64,1.69,4.74,1.77,6.36,0s1.75-4.56,0-6.36C235.8,4.84,217.84-.47,200.73,.03c-19.71,.57-38.83,8-56.36,16.53-9.06,4.4-17.56,9.98-23.46,18.3-1.37,1.93-.41,5.09,1.61,6.16,2.31,1.22,4.7,.44,6.16-1.61h0Z"/><path class="d" d="M126.28,105.66c-6.89-10.09-14.41-20.88-25.72-26.38-6.52-3.17-13.62-4.35-20.73-5.33-7.48-1.03-15-1.74-22.55-2.02-8.28-.31-16.58-.14-24.84,.49-2.34,.18-4.61,1.94-4.5,4.5,.1,2.28,1.99,4.69,4.5,4.5,14.1-1.08,28.29-.8,42.33,.87,.81,.1,1.61,.2,2.42,.3,1.58,.2-.84-.13,.74,.1,.4,.06,.8,.11,1.21,.17,1.79,.26,3.57,.54,5.35,.86,3.24,.59,6.47,1.33,9.56,2.48,.36,.13,.72,.27,1.07,.42-.73-.31,.51,.24,.55,.26,.6,.28,1.18,.58,1.76,.89,1.26,.69,2.48,1.45,3.66,2.28,.32,.23,.64,.46,.95,.69,.69,.51,.16,.12,.02,.01,.61,.49,1.22,.99,1.81,1.51,1.09,.96,2.13,1.96,3.13,3,1.11,1.15,2.17,2.34,3.19,3.56,.52,.61,1.02,1.24,1.52,1.86,.06,.08,.88,1.13,.29,.36,.25,.32,.49,.64,.73,.96,2.01,2.67,3.91,5.43,5.79,8.19,1.33,1.94,4.01,3,6.16,1.61,1.93-1.24,3.03-4.08,1.61-6.16h0Z"/><path class="d" d="M127.19,177.29c13.17-9.16,26.93-17.6,41.61-24.13,.89-.4,1.78-.78,2.68-1.17,.7-.3-.53,.22,.17-.07,.21-.09,.41-.17,.62-.26,.48-.2,.97-.4,1.46-.59,1.88-.75,3.77-1.47,5.67-2.16,3.9-1.4,7.86-2.65,11.87-3.72s7.97-1.94,12.02-2.64c.99-.17,1.98-.33,2.98-.48,.23-.03,.46-.07,.69-.1,.1-.01,1.05-.14,.55-.08-.44,.06,.31-.04,.32-.04,.31-.04,.61-.08,.92-.11,2.07-.24,4.15-.43,6.23-.57,4.61-.3,9.24-.33,13.85-.05,2.31,.14,4.6,.36,6.89,.65,.53,.07,.05,0-.05,0,.3,.04,.61,.09,.91,.13,.61,.09,1.22,.19,1.83,.29,1.22,.21,2.43,.44,3.64,.69,2.3,.48,4.97-.67,5.54-3.14,.51-2.25-.68-5.03-3.14-5.54-17.11-3.54-34.78-2.68-51.73,1.33s-31.91,10.73-46.48,18.99c-8.1,4.6-15.93,9.66-23.57,14.98-1.93,1.34-3,4-1.61,6.16,1.24,1.92,4.09,3.05,6.16,1.61h0Z"/><g><path class="h" d="M246.64,27.54l5.11,17.1,2.49,8.31c.78,2.61,1.33,5.63,2.89,7.91,1.86,2.72,4.84,4.59,8.21,3.5s4.63-4.36,5.14-7.52c.78-4.83,.5-9.79-1.12-14.43-1.79-5.14-4.86-9.9-9.16-13.28-1.85-1.45-4.59-1.94-6.36,0-1.49,1.62-1.98,4.81,0,6.36,1.45,1.14,2.69,2.43,3.89,3.83-.67-.78,.26,.37,.38,.55,.24,.35,.47,.71,.69,1.07,.48,.78,.91,1.58,1.3,2.41,.1,.22,.2,.44,.3,.66-.07-.15-.33-.85-.04-.06,.15,.4,.3,.8,.43,1.2,.31,.92,.56,1.86,.76,2.82,.09,.42,.16,.84,.23,1.26,.04,.23,.06,.86-.01-.11,.01,.18,.04,.36,.06,.54,.09,.97,.12,1.94,.09,2.91-.01,.42-.03,.85-.07,1.27-.02,.24-.05,.48-.07,.72,0-.04,.13-.81,.04-.29-.08,.42-.14,.84-.23,1.26-.05,.24-.1,.48-.16,.71-.03,.12-.34,1.08-.11,.49l.09-.2c-.22,.37-.23,.41-.03,.12,.38-.15,.82-.7,1.27-.85,.78-.27,1.68,0,2.28,.5-.08-.07-.51-.39-.08-.03s-.03-.05-.14-.23c-.09-.15-.17-.3-.26-.45-.5-.86,.06,.47-.03-.03-.21-1.11-.68-2.24-1.01-3.32l-1.07-3.56-2.2-7.36-4.83-16.15c-.67-2.25-3.19-3.9-5.54-3.14s-3.87,3.12-3.14,5.54h0Z"/><g><path class="g" d="M240.58,24.52c.15,.34,.31,.68,.45,1.02,.12,.29,.12,.27-.02-.05l.17,.41c.27,.69,.55,1.38,.8,2.08,.51,1.4,.96,2.82,1.37,4.25s.72,2.73,1.01,4.12c.15,.73,.29,1.46,.42,2.19,.06,.37,.12,.73,.18,1.1,.02,.1,.17,1.24,.11,.73-.06-.48,.08,.77,.08,.73,.03,.3,.06,.59,.09,.89,.07,.74,.13,1.48,.17,2.23,.09,1.49,.12,2.97,.1,4.46s-.1,2.97-.23,4.46c-.06,.67-.14,1.33-.21,2-.04,.33-.04,.3,.02-.09l-.06,.44c-.07,.44-.14,.88-.21,1.32-.39,2.31,.61,4.96,3.14,5.54,2.17,.5,5.12-.66,5.54-3.14,2.23-13.38,.47-26.87-5.14-39.22-.98-2.15-4.26-2.84-6.16-1.61-2.22,1.43-2.66,3.86-1.61,6.16h0Z"/><path class="g" d="M246.13,24.78c.23,.09,.45,.18,.68,.27-.52-.22-.54-.23-.07-.02,.33,.16,.66,.3,.99,.46,.76,.37,1.51,.77,2.25,1.19,1.47,.84,2.89,1.79,4.24,2.81-.88-.66,.36,.3,.51,.43,.28,.23,.56,.47,.83,.71,.64,.56,1.26,1.14,1.86,1.74,1.2,1.2,2.33,2.48,3.38,3.82-.63-.81,.04,.07,.17,.25,.29,.39,.56,.79,.83,1.19,.47,.71,.93,1.43,1.36,2.16s.84,1.48,1.22,2.24c.16,.32,.32,.65,.48,.98,.09,.18,.72,1.64,.28,.59,.65,1.57,1.2,3.17,1.65,4.81,.21,.76,.39,1.53,.54,2.3,.08,.42,.16,.83,.23,1.25,.04,.24,.08,.48,.11,.72-.08-.6-.08-.63-.02-.11,.29,2.33,1.86,4.62,4.5,4.5,2.19-.1,4.81-2,4.5-4.5-2.01-16.38-12.78-30.39-28.14-36.47-2.19-.87-5.04,.95-5.54,3.14-.59,2.59,.79,4.61,3.14,5.54h0Z"/><path class="g" d="M255.17,61.22c.38-.84,.85-1.61,1.37-2.37,.43-.63-.56,.6-.17,.23,.15-.14,.27-.32,.41-.47,.28-.31,.57-.6,.87-.88,.18-.17,.37-.33,.56-.49,.57-.51-.67,.47-.23,.16,.38-.26,.74-.53,1.13-.77,.35-.22,.72-.42,1.09-.61,.22-.11,.45-.22,.68-.33,.7-.34-.79,.26-.27,.11,.84-.24,1.65-.57,2.51-.75,.2-.04,.41-.08,.61-.11,.76-.14-.06,.07-.33,.04,.43,.05,.93-.08,1.36-.09s.91,0,1.36,.04c.16,.01,.33,.05,.49,.05-1.12,.05-.7-.1-.22-.01,.9,.17,1.77,.43,2.62,.78,1.01,.41,2.57,.07,3.47-.45s1.82-1.62,2.07-2.69c.59-2.61-.8-4.59-3.14-5.54-8.73-3.53-20.12,1.06-24.03,9.6-.98,2.14-.68,4.94,1.61,6.16,1.98,1.05,5.11,.67,6.16-1.61h0Z"/><path class="g" d="M245.46,63.72c4.73,4.41,11.14,6.25,17.49,5.09,5.63-1.03,10.77-5.01,13.42-10.04,1.1-2.08,.6-4.99-1.61-6.16-2.08-1.1-4.99-.61-6.16,1.61-.25,.47-.5,.92-.79,1.36-.13,.2-.27,.38-.4,.58-.29,.44,.51-.57-.06,.05-.32,.34-.63,.69-.96,1.02-.21,.2-.43,.4-.65,.59-.08,.07-.68,.55-.23,.2,.51-.38-.29,.19-.4,.26-.19,.13-.39,.26-.59,.38-.45,.27-.93,.49-1.39,.74-.55,.31,.7-.24,.11-.04-.28,.1-.55,.21-.82,.3-.5,.16-1.01,.3-1.52,.4-.11,.02-.87,.18-.28,.07s-.2,.02-.32,.02c-.55,.04-1.1,.06-1.66,.04-.31-.01-.61-.05-.92-.06-.65-.02,.74,.16,.1,.02-.54-.12-1.08-.21-1.62-.36-.24-.07-.47-.14-.71-.22-.11-.04-1.08-.39-.5-.16,.52,.2-.21-.1-.31-.15-.22-.11-.44-.22-.66-.34-.49-.27-.95-.57-1.41-.87-.7-.46,.26,.28-.11-.08-.22-.21-.46-.41-.69-.61-1.72-1.6-4.68-1.83-6.36,0s-1.84,4.65,0,6.36h0Z"/></g></g><g><path class="h" d="M248.64,147.54l5.11,17.1,2.49,8.31c.78,2.61,1.33,5.63,2.89,7.91,1.86,2.72,4.84,4.59,8.21,3.5s4.63-4.36,5.14-7.52c.78-4.83,.5-9.79-1.12-14.43-1.79-5.14-4.86-9.9-9.16-13.28-1.85-1.45-4.59-1.94-6.36,0-1.49,1.62-1.98,4.81,0,6.36,1.45,1.14,2.69,2.43,3.89,3.83-.67-.78,.26,.37,.38,.55,.24,.35,.47,.71,.69,1.07,.48,.78,.91,1.58,1.3,2.41,.1,.22,.2,.44,.3,.66-.07-.15-.33-.85-.04-.06,.15,.4,.3,.8,.43,1.2,.31,.92,.56,1.86,.76,2.82,.09,.42,.16,.84,.23,1.26,.04,.23,.06,.86-.01-.11,.01,.18,.04,.36,.06,.54,.09,.97,.12,1.94,.09,2.91-.01,.42-.03,.85-.07,1.27-.02,.24-.05,.48-.07,.72,0-.04,.13-.81,.04-.29-.08,.42-.14,.84-.23,1.26-.05,.24-.1,.48-.16,.71-.03,.12-.34,1.08-.11,.49l.09-.2c-.22,.37-.23,.41-.03,.12,.38-.15,.82-.7,1.27-.85,.78-.27,1.68,0,2.28,.5-.08-.07-.51-.39-.08-.03s-.03-.05-.14-.23c-.09-.15-.17-.3-.26-.45-.5-.86,.06,.47-.03-.03-.21-1.11-.68-2.24-1.01-3.32l-1.07-3.56-2.2-7.36-4.83-16.15c-.67-2.25-3.19-3.9-5.54-3.14s-3.87,3.12-3.14,5.54h0Z"/><g><path class="g" d="M242.58,144.52c.15,.34,.31,.68,.45,1.02,.12,.29,.12,.27-.02-.05l.17,.41c.27,.69,.55,1.38,.8,2.08,.51,1.4,.96,2.82,1.37,4.25s.72,2.73,1.01,4.12c.15,.73,.29,1.46,.42,2.19,.06,.37,.12,.73,.18,1.1,.02,.1,.17,1.24,.11,.73-.06-.48,.08,.77,.08,.73,.03,.3,.06,.59,.09,.89,.07,.74,.13,1.48,.17,2.23,.09,1.49,.12,2.97,.1,4.46s-.1,2.97-.23,4.46c-.06,.67-.14,1.33-.21,2-.04,.33-.04,.3,.02-.09l-.06,.44c-.07,.44-.14,.88-.21,1.32-.39,2.31,.61,4.96,3.14,5.54,2.17,.5,5.12-.66,5.54-3.14,2.23-13.38,.47-26.87-5.14-39.22-.98-2.15-4.26-2.84-6.16-1.61-2.22,1.43-2.66,3.86-1.61,6.16h0Z"/><path class="g" d="M248.13,144.78c.23,.09,.45,.18,.68,.27-.52-.22-.54-.23-.07-.02,.33,.16,.66,.3,.99,.46,.76,.37,1.51,.77,2.25,1.19,1.47,.84,2.89,1.79,4.24,2.81-.88-.66,.36,.3,.51,.43,.28,.23,.56,.47,.83,.71,.64,.56,1.26,1.14,1.86,1.74,1.2,1.2,2.33,2.48,3.38,3.82-.63-.81,.04,.07,.17,.25,.29,.39,.56,.79,.83,1.19,.47,.71,.93,1.43,1.36,2.16s.84,1.48,1.22,2.24c.16,.32,.32,.65,.48,.98,.09,.18,.72,1.64,.28,.59,.65,1.57,1.2,3.17,1.65,4.81,.21,.76,.39,1.53,.54,2.3,.08,.42,.16,.83,.23,1.25,.04,.24,.08,.48,.11,.72-.08-.6-.08-.63-.02-.11,.29,2.33,1.86,4.62,4.5,4.5,2.19-.1,4.81-2,4.5-4.5-2.01-16.38-12.78-30.39-28.14-36.47-2.19-.87-5.04,.95-5.54,3.14-.59,2.59,.79,4.61,3.14,5.54h0Z"/><path class="g" d="M257.17,181.22c.38-.84,.85-1.61,1.37-2.37,.43-.63-.56,.6-.17,.23,.15-.14,.27-.32,.41-.47,.28-.31,.57-.6,.87-.88,.18-.17,.37-.33,.56-.49,.57-.51-.67,.47-.23,.16,.38-.26,.74-.53,1.13-.77,.35-.22,.72-.42,1.09-.61,.22-.11,.45-.22,.68-.33,.7-.34-.79,.26-.27,.11,.84-.24,1.65-.57,2.51-.75,.2-.04,.41-.08,.61-.11,.76-.14-.06,.07-.33,.04,.43,.05,.93-.08,1.36-.09s.91,0,1.36,.04c.16,.01,.33,.05,.49,.05-1.12,.05-.7-.1-.22-.01,.9,.17,1.77,.43,2.62,.78,1.01,.41,2.57,.07,3.47-.45s1.82-1.62,2.07-2.69c.59-2.61-.8-4.59-3.14-5.54-8.73-3.53-20.12,1.06-24.03,9.6-.98,2.14-.68,4.94,1.61,6.16,1.98,1.05,5.11,.67,6.16-1.61h0Z"/><path class="g" d="M247.46,183.72c4.73,4.41,11.14,6.25,17.49,5.09,5.63-1.03,10.77-5.01,13.42-10.04,1.1-2.08,.6-4.99-1.61-6.16-2.08-1.1-4.99-.61-6.16,1.61-.25,.47-.5,.92-.79,1.36-.13,.2-.27,.38-.4,.58-.29,.44,.51-.57-.06,.05-.32,.34-.63,.69-.96,1.02-.21,.2-.43,.4-.65,.59-.08,.07-.68,.55-.23,.2,.51-.38-.29,.19-.4,.26-.19,.13-.39,.26-.59,.38-.45,.27-.93,.49-1.39,.74-.55,.31,.7-.24,.11-.04-.28,.1-.55,.21-.82,.3-.5,.16-1.01,.3-1.52,.4-.11,.02-.87,.18-.28,.07s-.2,.02-.32,.02c-.55,.04-1.1,.06-1.66,.04-.31-.01-.61-.05-.92-.06-.65-.02,.74,.16,.1,.02-.54-.12-1.08-.21-1.62-.36-.24-.07-.47-.14-.71-.22-.11-.04-1.08-.39-.5-.16,.52,.2-.21-.1-.31-.15-.22-.11-.44-.22-.66-.34-.49-.27-.95-.57-1.41-.87-.7-.46,.26,.28-.11-.08-.22-.21-.46-.41-.69-.61-1.72-1.6-4.68-1.83-6.36,0s-1.84,4.65,0,6.36h0Z"/></g></g><g><path class="h" d="M21.63,81.15l-8.59,28.74c-.15,.5-.32,1-.45,1.5-.07,.28-.37,.62,.07-.12-.09,.15-.16,.31-.24,.47-.11,.2-.25,.39-.36,.59-.25,.43,.16-.22,.19-.25-.55,.57,.08-.03,.21-.1,.46-.25,1.03-.3,1.53-.22l.31,.05c.56,.13,.98,.42,1.27,.85,.08,0,.28,.24-.03-.12,.42,.49,.15,.46,.08,.06-.04-.23-.12-.47-.18-.7-.1-.41-.18-.83-.25-1.25-.03-.18-.06-.36-.09-.54,.17,1.04,.03,.16,.01-.07-.08-.91-.11-1.82-.09-2.73,.01-.42,.03-.85,.07-1.27,.01-.18,.03-.36,.05-.54,.09-1.17-.12,.6,0-.07,.32-1.87,.79-3.67,1.45-5.46,.03-.08,.26-.65,.05-.14-.25,.58,.17-.35,.22-.46,.21-.44,.43-.87,.66-1.3,.49-.91,1.05-1.78,1.65-2.62,.08-.11,.56-.72,.2-.27-.39,.48,.33-.39,.34-.39,.32-.37,.64-.73,.98-1.08,.76-.79,1.58-1.51,2.44-2.19,1.86-1.46,1.65-4.85,0-6.36-1.97-1.81-4.38-1.56-6.36,0-7.39,5.81-11.6,15.91-10.61,25.25,.3,2.85,.71,5.96,2.69,8.19,2.57,2.88,6.87,2.63,9.55,.09,2.12-2.02,2.89-4.86,3.7-7.57l2.49-8.31,5.75-19.24c.67-2.25-.81-5-3.14-5.54s-4.81,.73-5.54,3.14h0Z"/><g><path class="g" d="M28.6,75.98c-5.61,12.36-7.37,25.84-5.14,39.22,.39,2.33,3.39,3.84,5.54,3.14,2.52-.81,3.56-3.04,3.14-5.54-.06-.37-.12-.73-.18-1.1-.04-.28-.13-1-.05-.35-.09-.74-.17-1.48-.24-2.22-.13-1.48-.21-2.97-.23-4.46s0-2.83,.09-4.24c.04-.74,.09-1.48,.16-2.23,.03-.37,.07-.74,.11-1.11,.01-.1,.14-1.24,.08-.73-.06,.48,.11-.76,.11-.73,.05-.29,.09-.59,.14-.88,.12-.73,.26-1.47,.41-2.19,.3-1.46,.65-2.9,1.05-4.34s.86-2.85,1.37-4.25c.23-.63,.47-1.25,.72-1.88,.09-.22,.39-.94,.15-.37,.18-.41,.36-.82,.54-1.22,.97-2.14,.68-4.94-1.61-6.16-1.97-1.04-5.12-.67-6.16,1.61h0Z"/><path class="g" d="M28.42,72.1C13.07,78.18,2.3,92.2,.29,108.57,0,110.92,2.56,113.17,4.79,113.07c2.68-.12,4.19-1.99,4.5-4.5,.06-.52,.06-.48-.02,.11,.04-.24,.07-.48,.11-.72,.06-.36,.13-.72,.2-1.07,.17-.83,.36-1.66,.58-2.48,.44-1.64,.99-3.25,1.65-4.81-.44,1.05,.2-.4,.28-.59,.16-.33,.31-.66,.48-.98,.38-.76,.79-1.5,1.22-2.24s.88-1.45,1.36-2.16c.24-.35,.48-.7,.73-1.05,.12-.17,.93-1.24,.28-.4,1.04-1.34,2.17-2.62,3.38-3.82,.6-.6,1.22-1.18,1.86-1.74,.27-.24,.55-.48,.83-.71,.15-.13,1.39-1.09,.51-.43,1.36-1.02,2.77-1.96,4.24-2.81,.68-.39,1.38-.76,2.09-1.11,.38-.19,.77-.36,1.15-.54,.47-.2,.44-.2-.07,.02,.22-.09,.45-.18,.68-.27,2.18-.86,3.95-3.05,3.14-5.54-.68-2.11-3.19-4.07-5.54-3.14h0Z"/><path class="g" d="M29.55,112.67c-3.91-8.55-15.3-13.14-24.03-9.6-1.13,.46-2.05,.98-2.69,2.07-.56,.96-.8,2.39-.45,3.47,.68,2.1,3.2,4.09,5.54,3.14,.85-.34,1.72-.61,2.62-.78,.18-.03,.95-.15,.14-.03s0,.01,.14,0c.41-.03,.83-.04,1.24-.04,.46,0,.91,.06,1.36,.08,.56,.02-1.11-.19-.33-.05,.25,.05,.49,.08,.74,.14,.87,.18,1.67,.5,2.51,.75,.49,.15-1.06-.5-.27-.11,.19,.09,.38,.18,.56,.27,.41,.21,.81,.43,1.2,.67,.35,.22,.69,.46,1.04,.69,.75,.52-.8-.7-.13-.09,.15,.14,.31,.27,.47,.41,.34,.31,.66,.63,.96,.96,.11,.12,.21,.25,.33,.37,.61,.66-.6-.87-.09-.13s.99,1.53,1.37,2.37c.98,2.15,4.25,2.84,6.16,1.61,2.22-1.43,2.67-3.86,1.61-6.16h0Z"/><path class="g" d="M25.12,113.36c-.18,.17-.36,.33-.55,.5-.84,.76,.44-.25-.1,.09-.47,.3-.91,.62-1.4,.89-.43,.24-.87,.46-1.32,.66,.88-.4,.07-.05-.13,.02-.23,.08-.47,.16-.7,.22-.53,.16-1.07,.27-1.62,.38s-.27,.02,.1,0c-.31,.02-.61,.06-.92,.07-.55,.03-1.11,.02-1.66-.01-.25-.02-.49-.04-.73-.07,.59,.06,.44,.06-.05-.04-.46-.1-.91-.21-1.36-.35-.28-.09-.55-.19-.83-.28-.5-.17-.2-.12,.11,.05-.94-.51-1.82-1-2.71-1.6,.3,.2,.46,.39,.08,.05-.22-.19-.44-.38-.65-.58-.34-.32-.66-.66-.97-1.01s-.42-.52-.07-.04c-.14-.19-.27-.38-.41-.57-.33-.48-.62-.99-.89-1.51-1.1-2.09-4.18-2.89-6.16-1.61-2.12,1.37-2.79,3.93-1.61,6.16,2.65,5.03,7.79,9.02,13.42,10.04,6.35,1.16,12.75-.68,17.49-5.09,1.73-1.61,1.75-4.76,0-6.36-1.85-1.7-4.52-1.72-6.36,0h0Z"/></g></g></g></g></svg>