<?xml version="1.0" encoding="UTF-8"?><svg xmlns="http://www.w3.org/2000/svg" viewBox="0 0 187.42 309.08"><defs><style>.d{fill:#008a03;}.e{fill:#754c24;stroke-width:9px;}.e,.f{stroke:#b36a15;stroke-miterlimit:10;}.f{fill:#f7931e;stroke-width:11px;}.g{fill:#002b03;}.h{fill:lime;}.i{fill:#008aec;}</style></defs><g id="a"/><g id="b"><g id="c"><polygon class="f" points="13.48 168.96 28.5 298.38 139.5 303.38 169.52 168.96 13.48 168.96"/><ellipse class="e" cx="91.5" cy="159.88" rx="87" ry="20.5"/><g><g><path class="h" d="M89.1,120.35c.79,5.59,.73,17.46-2.77,21.9-3.28,4.16-9.05,5.22-14.29,5.99-2.04,.3-4.12,.6-6.14,.18-2.85-.59-5.22-2.55-7.14-4.73-13.15-14.91-8.9-39.19-20.46-55.37,22.31-1.27,43.07-9.25,59.94-2.71,5.21,2.02,10.41,4.65,13.76,9.13,3.35,4.47,4.71,10.67,2.53,15.83-1.89,4.48-6.17,7.65-10.81,9.1-4.64,1.45-9.63,1.38-14.46,.81"/><path class="d" d="M84.76,121.55c-.22-1.57-.05-.35-.01,0,.03,.31,.06,.62,.09,.93,.06,.73,.1,1.45,.13,2.18,.07,1.63,.07,3.26,0,4.88-.04,.85-.09,1.69-.17,2.54-.04,.39-.08,.78-.12,1.17-.03,.27,.01,.83,.03-.2,0,.21-.06,.44-.1,.65-.24,1.51-.57,3.02-1.09,4.46-.03,.08-.2,.4-.2,.52,0-.09,.48-.99,.13-.34-.14,.26-.26,.53-.41,.78-.07,.12-.34,.69-.45,.7-.04,0,.84-.92,.09-.17-.17,.17-.33,.35-.5,.52-.21,.2-1.31,.96-.47,.44-.36,.22-.69,.47-1.06,.68s-.75,.39-1.12,.59c-.18,.1-.79,.32,.07-.01-.23,.09-.46,.18-.69,.26-1.77,.64-3.62,1.05-5.47,1.37-.94,.17-1.88,.31-2.82,.45-.53,.08-.09,.02,.01,0-.32,.04-.63,.08-.95,.11-.63,.06-1.26,.09-1.9,.08-.3,0-.64,0-.94-.06,.22,.04,.55,.13-.12-.07-.19-.06-.38-.11-.57-.17-.13-.04-.87-.37-.38-.13,.46,.23-.12-.08-.17-.11-.23-.13-.46-.25-.68-.39s-.44-.29-.66-.44c-.32-.22-.36-.31-.04-.02-.75-.67-1.47-1.34-2.15-2.09-.28-.32-.56-.64-.83-.97-.15-.18-.3-.37-.45-.55,.23,.29,.35,.47,.06,.06-1.02-1.43-1.95-2.91-2.77-4.47-.41-.78-.78-1.57-1.14-2.37-.07-.16-.14-.32-.21-.48,.39,.89,.12,.3,.05,.1-.17-.44-.35-.88-.51-1.32-2.53-6.82-3.69-14.05-5.19-21.13-1.73-8.19-4.02-16.55-8.91-23.48l-3.89,6.77c8.78-.52,17.45-2.02,26.12-3.39,2.01-.32,4.02-.62,6.03-.9,.04,0,.75-.1,.25-.03-.54,.07,.34-.04,.46-.06,.42-.05,.84-.11,1.26-.16,1.04-.12,2.08-.24,3.12-.33,3.72-.35,7.47-.5,11.21-.25,.83,.06,1.66,.15,2.49,.23,.69,.07-.74-.12-.06,0,.19,.03,.38,.06,.57,.09,.5,.08,1,.17,1.49,.27,1.73,.35,3.44,.81,5.1,1.41,.43,.15,.85,.32,1.27,.49,.17,.07,1.14,.46,.76,.3-.5-.21,.27,.12,.39,.17,.18,.08,.37,.16,.55,.25,.49,.22,.97,.45,1.45,.69,1.67,.84,3.26,1.79,4.77,2.89-.61-.44,.12,.11,.32,.28,.35,.3,.69,.61,1.02,.93s.65,.65,.96,1c.13,.15,.25,.31,.39,.45,.35,.36-.32-.49,.15,.18s.94,1.41,1.33,2.17c.13,.24,.62,1.33,.29,.53,.2,.48,.37,.98,.53,1.48,.11,.37,.22,.75,.31,1.13,.06,.25,.11,.51,.16,.76,.02,.07,.13,.72,.04,.17s0,.09,.01,.17c.02,.26,.04,.52,.05,.77,.02,.51,.02,1.03-.01,1.55-.02,.38-.19,1.11-.01,.34-.1,.44-.17,.88-.29,1.32s-.27,.86-.42,1.29c.02-.07,.32-.64,.08-.2-.15,.27-.27,.56-.42,.83-.24,.43-.51,.84-.79,1.25-.05,.07-.43,.53-.1,.13s-.18,.19-.24,.26c-.33,.37-.68,.72-1.04,1.06-.14,.13-.27,.25-.42,.37,0,0-.89,.7-.42,.35,.43-.31-.09,.05-.15,.09-.26,.17-.52,.35-.78,.52-.43,.27-.86,.52-1.31,.75-.39,.2-.79,.39-1.19,.57,.89-.4-.42,.14-.68,.22-1.13,.38-2.28,.64-3.45,.86-.02,0-.75,.13-.3,.06,.49-.08-.65,.07-.76,.08-.6,.06-1.21,.1-1.82,.12-2.44,.09-4.88-.07-7.3-.35s-4.6,2.26-4.5,4.5c.12,2.66,1.99,4.22,4.5,4.5,9.07,1.02,19.32-.08,25.84-7.2,3.14-3.44,4.95-7.8,4.98-12.48s-1.46-9.09-4.09-12.67-6.17-6.46-10.18-8.54c-3.72-1.93-7.72-3.55-11.83-4.42-8.53-1.8-17.19-1.03-25.74,.14-4.97,.68-9.91,1.54-14.87,2.31-1.28,.2-2.56,.39-3.84,.57-.3,.04-.61,.08-.91,.13,.5-.07,.09-.01-.17,.02-.69,.09-1.37,.17-2.06,.26-2.7,.32-5.4,.57-8.12,.73-1.61,.1-3.05,.8-3.89,2.23-.76,1.3-.91,3.26,0,4.54,1.1,1.55,2.08,3.19,2.93,4.89,.21,.42,.42,.85,.62,1.28,.09,.2,.67,1.59,.26,.56,.36,.88,.7,1.77,1.02,2.67,1.31,3.71,2.24,7.55,3.06,11.39,1.63,7.6,2.81,15.39,5.68,22.66,3.2,8.1,8.91,17.77,18.39,18.97,2.66,.34,5.35-.18,7.97-.59,1.98-.31,3.97-.67,5.89-1.27,4.23-1.3,8.49-3.72,10.69-7.72,2.06-3.73,2.65-8.19,2.94-12.37s.11-7.95-.44-11.9c-.32-2.34-3.44-3.82-5.54-3.14-2.57,.83-3.49,3.03-3.14,5.54h0Z"/></g><path class="g" d="M72.2,122.37c-1.37-.2-2.72-.52-4.02-.96-.33-.11-.66-.23-.99-.36-.02,0-.44-.18-.16-.06-.17-.07-.34-.15-.51-.23-.64-.29-1.26-.62-1.87-.97-.68-.39-1.67-.18-2.05,.54s-.19,1.63,.54,2.05c2.55,1.47,5.37,2.47,8.28,2.89,.77,.11,1.65-.19,1.85-1.05,.16-.71-.22-1.73-1.05-1.85h0Z"/><path class="g" d="M72,104.92l-6.19-12.2c-.37-.72-1.38-.93-2.05-.54-.73,.43-.91,1.33-.54,2.05l6.19,12.2c.37,.72,1.38,.93,2.05,.54,.73-.43,.91-1.33,.54-2.05h0Z"/><path class="g" d="M84.3,93c-2.73-5.8-4.83-11.87-6.3-18.11-.44-1.88-3.34-1.08-2.89,.8,1.53,6.49,3.76,12.79,6.6,18.83,.82,1.75,3.41,.22,2.59-1.51h0Z"/><path class="g" d="M60.09,103.19c-1.21,.43-2.44,.76-3.7,1-.31,.06-.62,.11-.93,.15-.47,.07,.3-.03-.18,.02-.17,.02-.34,.04-.5,.06-.65,.06-1.3,.1-1.95,.11-.78,.02-1.54,.68-1.5,1.5s.66,1.52,1.5,1.5c2.74-.06,5.47-.54,8.06-1.45,.74-.26,1.31-1.04,1.05-1.85-.24-.73-1.05-1.33-1.85-1.05h0Z"/><path class="g" d="M79.33,113.09l-5.23-1.62c-.75-.23-1.67,.27-1.85,1.05-.19,.81,.24,1.6,1.05,1.85l5.23,1.62c.75,.23,1.67-.27,1.85-1.05,.19-.81-.24-1.6-1.05-1.85h0Z"/><path class="g" d="M94.01,104.67l-1.32-7.83c-.13-.78-1.13-1.28-1.85-1.05-.84,.27-1.19,1.01-1.05,1.85l1.32,7.83c.13,.78,1.13,1.28,1.85,1.05,.84-.27,1.19-1.01,1.05-1.85h0Z"/><path class="g" d="M77.42,136.76c-3.04-.54-6.13-.74-9.22-.51-.78,.06-1.54,.65-1.5,1.5,.03,.76,.66,1.56,1.5,1.5,1.44-.11,2.89-.13,4.34-.06,.71,.04,1.42,.09,2.12,.17,.33,.04,.59,.07,.78,.1,.39,.06,.79,.12,1.18,.19,.77,.14,1.65-.21,1.85-1.05,.17-.73-.22-1.7-1.05-1.85h0Z"/><path class="g" d="M105.52,103.84l.84-11.34c.06-.81-.73-1.5-1.5-1.5-.86,0-1.44,.69-1.5,1.5l-.84,11.34c-.06,.81,.73,1.5,1.5,1.5,.86,0,1.44-.69,1.5-1.5h0Z"/><path class="g" d="M53.41,90.66l-10.03,2c-.79,.16-1.25,1.1-1.05,1.85,.23,.83,1.05,1.21,1.85,1.05l10.03-2c.79-.16,1.25-1.1,1.05-1.85-.23-.83-1.05-1.21-1.85-1.05h0Z"/><path class="g" d="M60.96,89.31c-1.35-2.96-2.48-6.09-3.38-9.27-.21-.75-1.07-1.3-1.85-1.05s-1.28,1.04-1.05,1.85c.96,3.42,2.21,6.76,3.68,9.99,.34,.74,1.4,.92,2.05,.54,.76-.44,.88-1.31,.54-2.05h0Z"/></g><path class="d" d="M96.75,162.37l1.67-97.1,.47-27.39c.04-2.35-2.1-4.61-4.5-4.5s-4.46,1.98-4.5,4.5l-1.67,97.1-.47,27.39c-.04,2.35,2.1,4.61,4.5,4.5s4.46-1.98,4.5-4.5h0Z"/><g><g><path class="h" d="M92.96,46.53c-.79,5.59-.73,17.46,2.77,21.9,3.28,4.16,9.05,5.22,14.29,5.99,2.04,.3,4.12,.6,6.14,.18,2.85-.59,5.22-2.55,7.14-4.73,13.15-14.91,8.9-39.19,20.46-55.37-22.31-1.27-43.07-9.25-59.94-2.71-5.21,2.02-10.41,4.65-13.76,9.13-3.35,4.47-4.71,10.67-2.53,15.83,1.89,4.48,6.17,7.65,10.81,9.1,4.64,1.45,9.63,1.38,14.46,.81"/><path class="d" d="M88.62,45.34c-.47,3.45-.67,6.9-.52,10.38,.16,3.71,.51,7.64,1.81,11.14,1.5,4.04,4.29,7.21,8.24,9.04,4.32,2,9.04,2.76,13.75,3.28,5.49,.61,10.3-1.58,14.04-5.54,2.77-2.94,5.04-6.41,6.72-10.08,3.37-7.36,4.89-15.24,6.5-23.13,.88-4.28,1.8-8.57,3.14-12.73,.33-1.02,.69-2.04,1.07-3.04,.1-.27,.71-1.7,.29-.74,.22-.49,.43-.98,.66-1.46,.95-1.99,2.05-3.89,3.32-5.69,.91-1.28,.76-3.24,0-4.54-.84-1.43-2.27-2.13-3.89-2.23-2.33-.14-4.65-.34-6.97-.6-1.15-.13-2.29-.27-3.44-.42-.77-.1,.6,.09-.17-.02-.23-.03-.45-.06-.68-.09-.68-.1-1.36-.19-2.04-.29-4.49-.67-8.97-1.44-13.46-2.12-8.68-1.31-17.39-2.33-26.14-1.1-4.12,.58-7.93,1.88-11.73,3.53s-7.73,3.94-10.72,7.04c-6.31,6.52-8.84,17.26-3.65,25.22,6.1,9.36,17.7,11.18,28.02,10.01,2.33-.26,4.62-1.88,4.5-4.5-.1-2.21-1.99-4.78-4.5-4.5-2.12,.24-4.25,.4-6.39,.37-1.06-.01-2.12-.08-3.18-.19-.02,0-.76-.11-.3-.04s-.28-.05-.3-.06c-.59-.11-1.19-.23-1.78-.38-.93-.23-1.83-.55-2.73-.87,.74,.26,0,0-.3-.15-.45-.22-.9-.46-1.33-.71-.38-.22-.75-.46-1.11-.7-.16-.11-.31-.22-.46-.32,.14,.1,.66,.56,.02,.01s-1.27-1.17-1.87-1.82c-.05-.05-.46-.52-.12-.12,.37,.43-.12-.17-.2-.29-.21-.31-.41-.62-.59-.94-.22-.38-.41-.76-.6-1.16,.08,.17,.28,.82,.02,0-.08-.25-.16-.49-.24-.74-.12-.43-.19-.88-.31-1.31-.13-.5,.01,.17,.02,.24-.02-.19-.04-.38-.05-.58-.07-.97-.03-1.93,.07-2.9-.09,.89,.06-.21,.13-.53,.09-.38,.18-.76,.3-1.14,.13-.44,.28-.87,.44-1.3,.07-.18,.37-.74,0-.01,.12-.23,.22-.47,.34-.71,.39-.76,.82-1.49,1.31-2.18,.07-.1,.57-.74,.24-.33-.31,.38,.11-.12,.15-.16,.35-.39,.7-.79,1.08-1.16,.33-.32,.66-.64,1.01-.94,.14-.12,.94-.77,.61-.52-.43,.33,.24-.17,.34-.24,.16-.11,.32-.23,.49-.34,.44-.3,.89-.58,1.34-.86,1.61-.97,3.29-1.78,5.01-2.53-.76,.33,.36-.14,.59-.23,.36-.14,.73-.29,1.09-.42,.89-.33,1.79-.62,2.7-.87,.79-.22,1.59-.41,2.39-.57,.43-.09,.87-.17,1.31-.25,.32-.05,1.67-.23,.69-.12,3.66-.43,7.34-.46,11.02-.23,1.93,.12,3.86,.31,5.78,.53,.42,.05,.84,.1,1.26,.15,.28,.04,.56,.07,.84,.11-.08-.01-.67-.09-.14-.02,1.07,.15,2.14,.3,3.21,.46,9.69,1.46,19.35,3.29,29.15,3.86l-3.89-6.77c-8.71,12.33-8.76,27.98-13.18,41.92-.27,.85-.55,1.69-.86,2.52-.14,.39-.29,.77-.44,1.16-.09,.22-.18,.43-.26,.65,.13-.33,.25-.58,.04-.1-.72,1.6-1.5,3.17-2.42,4.66-.46,.75-.94,1.48-1.46,2.2-.1,.14-.21,.28-.31,.43,.53-.75,.18-.23,.05-.07-.3,.37-.61,.74-.92,1.09-.67,.75-1.42,1.39-2.13,2.11-.35,.35,.06-.02,.13-.08-.21,.16-.43,.31-.65,.46-.44,.29-.91,.52-1.37,.78,.66-.38,.22-.07-.01,0-.25,.07-.5,.15-.75,.23-.01,0-.65,.16-.25,.08,.47-.1-.47,.04-.58,.04-.55,.02-1.11,0-1.66-.03-.32-.02-.63-.05-.95-.09-.2-.02-.72-.09-.22-.03-1.89-.26-3.79-.56-5.65-1.01-.91-.22-1.81-.47-2.7-.78-.31-.11-1.28-.54-.46-.16-.44-.21-.87-.42-1.3-.65s-.8-.52-1.21-.77c.05,.03,.57,.5,.2,.16-.18-.16-.36-.31-.54-.48-.22-.21-.82-.63-.88-.92,0,0,.55,.85,.2,.25-.08-.14-.18-.27-.26-.4-.2-.33-.34-.67-.53-1-.22-.4,.19,.46,.19,.46,0-.16-.19-.49-.24-.65-.28-.8-.5-1.61-.69-2.44-.09-.41-.18-.83-.25-1.25-.04-.21-.07-.43-.11-.64-.02-.15-.15-1.1-.06-.38,.08,.63,0,.05,0-.06-.03-.28-.06-.56-.09-.84-.05-.51-.09-1.01-.13-1.52-.12-1.82-.15-3.64-.1-5.46,.02-.85,.06-1.69,.13-2.54,.03-.36,.06-.72,.09-1.08s.24-1.89,.01-.26c.32-2.32-.56-4.95-3.14-5.54-2.12-.48-5.19,.65-5.54,3.14h0Z"/></g><path class="g" d="M110.65,51.45c2.91-.42,5.73-1.42,8.28-2.89,.68-.39,.97-1.37,.54-2.05s-1.32-.96-2.05-.54c-.61,.35-1.23,.67-1.87,.97-.17,.08-.34,.15-.51,.23,.24-.1-.1,.04-.16,.06-.33,.13-.66,.25-.99,.36-1.31,.45-2.66,.77-4.02,.96-.78,.11-1.28,1.14-1.05,1.85,.28,.85,1.01,1.17,1.85,1.05h0Z"/><path class="g" d="M112.65,32.62l6.19-12.2c.37-.72,.19-1.63-.54-2.05-.67-.39-1.68-.19-2.05,.54l-6.19,12.2c-.37,.72-.19,1.63,.54,2.05,.67,.39,1.68,.19,2.05-.54h0Z"/><path class="g" d="M100.35,20.7c2.84-6.03,5.07-12.33,6.6-18.83,.44-1.88-2.45-2.68-2.89-.8-1.47,6.24-3.57,12.31-6.3,18.11-.82,1.74,1.77,3.26,2.59,1.51h0Z"/><path class="g" d="M121.17,32.26c2.58,.92,5.32,1.4,8.06,1.45,.78,.02,1.54-.7,1.5-1.5s-.66-1.48-1.5-1.5c-.63-.01-1.25-.05-1.88-.11-.19-.02-.38-.04-.58-.06-.33-.04,.18,.03-.18-.02-.31-.05-.62-.1-.93-.15-1.26-.23-2.49-.57-3.7-1-.74-.26-1.67,.3-1.85,1.05-.19,.84,.25,1.56,1.05,1.85h0Z"/><path class="g" d="M103.53,42.17l5.23-1.62c.75-.23,1.3-1.06,1.05-1.85s-1.04-1.3-1.85-1.05l-5.23,1.62c-.75,.23-1.3,1.06-1.05,1.85s1.04,1.3,1.85,1.05h0Z"/><path class="g" d="M90.95,31.65l1.32-7.83c.13-.77-.2-1.65-1.05-1.85-.73-.17-1.71,.22-1.85,1.05l-1.32,7.83c-.13,.77,.2,1.65,1.05,1.85,.73,.17,1.71-.22,1.85-1.05h0Z"/><path class="g" d="M105.44,65.83c.36-.06,.73-.13,1.09-.18,.08-.01,.17-.02,.25-.04-.12,.01-.08,.01,.11-.01,.17-.02,.34-.04,.51-.06,.71-.08,1.41-.13,2.12-.17,1.45-.07,2.9-.05,4.34,.06,.78,.06,1.53-.73,1.5-1.5-.04-.86-.66-1.44-1.5-1.5-3.09-.23-6.17-.03-9.22,.51-.77,.14-1.28,1.12-1.05,1.85,.27,.83,1.02,1.2,1.85,1.05h0Z"/><path class="g" d="M79.54,30.03l-.84-11.34c-.06-.81-.65-1.5-1.5-1.5-.77,0-1.56,.69-1.5,1.5l.84,11.34c.06,.81,.65,1.5,1.5,1.5,.77,0,1.56-.69,1.5-1.5h0Z"/><path class="g" d="M127.86,19.73l10.03,2c.77,.15,1.66-.22,1.85-1.05,.17-.75-.22-1.68-1.05-1.85l-10.03-2c-.77-.15-1.66,.22-1.85,1.05-.17,.75,.22,1.68,1.05,1.85h0Z"/><path class="g" d="M123.69,17.01c1.48-3.23,2.72-6.57,3.68-9.99,.21-.75-.26-1.67-1.05-1.85s-1.62,.24-1.85,1.05c-.9,3.18-2.03,6.32-3.38,9.27-.33,.71-.23,1.65,.54,2.05,.66,.35,1.7,.22,2.05-.54h0Z"/></g><path class="d" d="M94.91,64.52c-14.51-18.02-34.72-31.34-56.83-38.05-6.4-1.94-12.93-3.23-19.56-4.06-2.35-.29-4.6,2.28-4.5,4.5,.12,2.69,1.99,4.19,4.5,4.5,.14,.02,1.45,.2,.37,.04,.26,.04,.52,.07,.78,.11,.65,.09,1.3,.2,1.96,.3,1.43,.24,2.86,.5,4.28,.79,2.71,.56,5.4,1.22,8.07,1.98s5.3,1.62,7.9,2.58c1.24,.46,2.47,.93,3.69,1.43,.24,.1,.49,.2,.73,.3-.94-.39,.27,.12,.38,.17,.73,.32,1.45,.64,2.17,.97,4.92,2.26,9.67,4.86,14.22,7.8,2.33,1.5,4.6,3.09,6.81,4.76-.03-.02,1,.76,.49,.37s.51,.4,.48,.38c.52,.41,1.03,.82,1.54,1.24,1.12,.92,2.23,1.86,3.32,2.82,4.65,4.11,8.94,8.6,12.83,13.44,1.48,1.84,4.84,1.66,6.36,0,1.79-1.96,1.58-4.4,0-6.36h0Z"/><path class="d" d="M97.49,129.34c3.56-5.51,7.14-11.01,11.04-16.29,.48-.65,.96-1.29,1.45-1.93,.8-1.06-.54,.68,.28-.36,.25-.31,.49-.63,.74-.94,.99-1.25,2.01-2.48,3.06-3.69,2.16-2.5,4.43-4.9,6.84-7.15,1.05-.98,2.13-1.94,3.24-2.86,.3-.25,.61-.5,.91-.74,.09-.07,1.12-.87,.32-.26,.73-.55,1.47-1.1,2.22-1.62,2.61-1.82,5.36-3.44,8.24-4.81,.4-.19,.79-.37,1.19-.55,.04-.02,1.36-.57,.53-.23,.81-.33,1.62-.64,2.44-.94,1.77-.64,3.58-1.19,5.4-1.67,1.55-.41,3.1-.76,4.67-1.07,.86-.17,1.72-.32,2.58-.46,.43-.07,.87-.13,1.3-.2,.54-.08,.58-.08,.11-.02,.29-.04,.58-.08,.87-.11,8.04-.98,16.16-.96,24.25-.7,2.36,.08,4.61-2.13,4.5-4.5-.11-2.5-1.98-4.42-4.5-4.5-14.8-.49-30.33-.18-44.21,5.57s-23.57,15.35-32.26,26.63c-4.66,6.05-8.84,12.44-12.98,18.85-1.28,1.98-.47,5.06,1.61,6.16,2.24,1.18,4.79,.5,6.16-1.61h0Z"/><path class="i" d="M179.91,86.78c3.92,0,7.68-3.45,7.5-7.5s-3.3-7.5-7.5-7.5c-3.92,0-7.68,3.45-7.5,7.5s3.3,7.5,7.5,7.5h0Z"/><path class="i" d="M17.71,32.98c3.92,0,7.68-3.45,7.5-7.5s-3.3-7.5-7.5-7.5c-3.92,0-7.68,3.45-7.5,7.5s3.3,7.5,7.5,7.5h0Z"/><path d="M179.91,82.28c3.86,0,3.87-6,0-6s-3.87,6,0,6h0Z"/><path d="M17.71,27.69c3.86,0,3.87-6,0-6s-3.87,6,0,6h0Z"/></g></g></svg>