<?xml version="1.0" encoding="UTF-8"?><svg xmlns="http://www.w3.org/2000/svg" viewBox="0 0 458.71 599.22"><defs><style>.f{fill:#0a7fff;}.f,.g{stroke-miterlimit:10;}.f,.g,.h{stroke:#000;}.i{fill:#ffd59f;}.j{fill:#ff931e;}.g,.h{fill:#fff;}.h{stroke-miterlimit:10;stroke-width:1px;}</style></defs><g id="a"/><g id="b"><g id="c"><path d="M227.41,300.29l-5,71c-1.65,23.4-3.61,46.82-3.65,70.3-.03,13.2,.6,26.41,2.27,39.51,.32,2.48,.8,4.52,2.64,6.36,1.56,1.56,4.12,2.74,6.36,2.64s4.74-.87,6.36-2.64c1.5-1.63,2.93-4.06,2.64-6.36-2.98-23.32-2.59-46.89-1.27-70.31,1.32-23.53,3.19-47.03,4.84-70.53l2.81-39.97c.16-2.2-1.11-4.84-2.64-6.36s-4.12-2.74-6.36-2.64c-5.16,.23-8.65,3.96-9,9h0Z"/><path d="M223.52,469.8c-11.76,12.88-23.19,26.06-34.27,39.53s-22.57,28.18-33.3,42.69c-5.86,7.92-11.61,15.93-17.23,24.02-1.27,1.83-1.48,4.86-.91,6.94s2.19,4.35,4.14,5.38c2.09,1.1,4.62,1.66,6.94,.91s3.98-2.12,5.38-4.14c9.65-13.86,19.64-27.49,29.97-40.86l-1.41,1.82c13.2-17.08,26.94-33.73,41.21-49.93,4.03-4.58,8.11-9.12,12.22-13.62,3.17-3.48,3.69-9.34,0-12.73-3.46-3.17-9.34-3.71-12.73,0h0Z"/><path d="M224.11,491.17c3.76,4.23,7.37,8.59,10.83,13.07l-1.41-1.82c10.1,13.12,18.89,27.24,26.19,42.11,2.06,4.19,3.99,8.45,5.81,12.75l-.91-2.15c5.11,12.13,9.26,24.66,12.37,37.45,1.11,4.58,6.54,7.75,11.07,6.29,4.75-1.54,7.48-6.17,6.29-11.07-3.87-15.9-9.38-31.33-16.18-46.21-6.56-14.35-14.49-28.08-23.65-40.92-5.5-7.7-11.39-15.14-17.68-22.22-3.14-3.53-9.57-3.44-12.73,0-3.46,3.77-3.35,8.96,0,12.73h0Z"/><path d="M243.25,381.54c11.51-12.28,23.81-23.8,36.83-34.45,1.63-1.33,3.27-2.65,4.91-3.96,.82-.65,1.65-1.3,2.48-1.95,.36-.28,1.31-1.07-.32,.25,.49-.39,1-.77,1.5-1.15,3.34-2.55,6.73-5.05,10.16-7.48,6.85-4.88,13.87-9.53,21.03-13.95,14.45-8.91,29.5-16.63,44.89-23.77,15.96-7.4,31.54-15.28,44.44-27.49,11.73-11.1,20.96-24.74,28.66-38.85,3.79-6.95,7.24-14.08,10.56-21.26,1.65-3.58,3.27-7.17,4.88-10.77,1.98-4.44,4.21-8.93,5.03-13.76,1.02-6.04,.23-11.88-2.96-17.19-2.5-4.16-5.97-7.81-9.11-11.5-6-7.07-12.06-14.09-18.16-21.08-12.2-13.97-24.6-27.76-37.19-41.38-25.18-27.24-51.12-53.78-77.78-79.57-3.33-3.22-6.68-6.44-10.03-9.64s-9.39-3.64-12.73,0-3.64,9.26,0,12.73c26.5,25.29,52.32,51.3,77.39,78.01,12.54,13.35,24.89,26.88,37.05,40.58,6,6.76,11.96,13.56,17.87,20.41,3.03,3.51,6.05,7.03,9.06,10.56,1.35,1.59,2.7,3.18,4.05,4.77,.72,.85,1.43,1.69,2.14,2.54,.33,.4,.65,.8,.98,1.2,.41,.52,.26,.32-.46-.59,.18,.25,.36,.5,.54,.76,.53,.76,.95,1.58,1.44,2.36,1.06,1.68-.42-1.84,.06,.09,.1,.39,.23,.79,.34,1.18,.58,1.99,.05-1.42,0-.15-.02,.52,0,1.09,.02,1.6,.03,.64,.36,1.4,.13-.47,.07,.56-.25,1.35-.39,1.92-.26,1.07-.6,2.13-.98,3.16-.19,.52-.41,1.04-.6,1.56-.48,1.31,.9-2,0,0-.82,1.83-1.64,3.67-2.46,5.51-3.2,7.12-6.46,14.22-9.97,21.2-3.5,6.95-7.25,13.78-11.43,20.34-2.04,3.2-4.19,6.34-6.46,9.39-.29,.39-.58,.78-.88,1.16-1,1.32,.34-.37,.34-.44,.03,.46-1.46,1.84-1.82,2.27-1.23,1.5-2.49,2.97-3.78,4.4-2.59,2.87-5.33,5.62-8.21,8.2-1.38,1.23-2.79,2.43-4.23,3.58-.55,.44-1.21,1.39,.2-.14-.24,.27-.72,.55-.99,.75-1.04,.78-2.11,1.53-3.18,2.27-6.99,4.79-14.53,8.71-22.17,12.37-15.22,7.29-30.47,14.28-45.07,22.79-29.06,16.95-56.02,37.73-79.79,61.53-2.9,2.9-5.75,5.85-8.55,8.84-3.22,3.44-3.66,9.37,0,12.73s9.29,3.67,12.73,0h0Z"/><path d="M223.65,365.63c-.53-.22-1.06-.44-1.58-.66s-2.24-1.14,.04,.02c-1.01-.52-2.11-.9-3.15-1.35-2.27-.98-4.53-1.98-6.79-3.01-4.16-1.89-8.29-3.84-12.39-5.85-8.2-4.03-16.26-8.32-24.19-12.85-16.02-9.16-31.47-19.33-46.24-30.4-.91-.69-1.82-1.37-2.73-2.07-.45-.35-.91-.69-1.36-1.04-1.62-1.23,1.62,1.26,.01,.01-1.8-1.4-3.6-2.81-5.38-4.24-3.71-2.97-7.38-6.01-11-9.1-6.95-5.93-13.71-12.08-20.29-18.42-13.28-12.82-25.78-26.45-37.38-40.81-1.67-2.07-3.33-4.16-4.97-6.26-.2-.25-.45-.67-.7-.9,.83,1.07,.95,1.22,.36,.47-.23-.3-.46-.6-.69-.91-.81-1.06-1.61-2.12-2.41-3.19-3.08-4.11-6.09-8.28-9.03-12.49-5.98-8.59-11.65-17.4-16.99-26.4v9.08c5.54-7.36,11.08-14.72,16.7-22.02,.04-.05,1.42-1.85,.56-.73s.53-.68,.56-.73c.71-.91,1.41-1.82,2.12-2.73,1.42-1.82,2.84-3.63,4.27-5.43,2.86-3.61,5.75-7.19,8.67-10.75,11.06-13.43,22.74-26.33,35.14-38.54s24.55-22.95,37.67-33.43c1.57-1.25,3.15-2.5,4.73-3.73,.1-.08,1.76-1.36,.59-.46s.49-.38,.6-.46c.92-.71,1.85-1.41,2.78-2.11,3.29-2.48,6.61-4.92,9.96-7.32,6.88-4.92,13.88-9.65,21-14.2,17.1-10.91,35.03-20.41,50.95-33.08,1.68-1.34,2.64-4.32,2.64-6.36,0-2.21-.98-4.84-2.64-6.36s-3.97-2.74-6.36-2.64c-2.53,.11-4.39,1.07-6.36,2.64-.52,.41-1.02,.84-1.56,1.23,.22-.16,1.54-1.17,.25-.2-.88,.66-1.76,1.32-2.65,1.97-1.78,1.29-3.58,2.55-5.41,3.79-3.65,2.47-7.37,4.83-11.13,7.14-7.57,4.65-15.26,9.1-22.8,13.81-14.82,9.25-29.07,19.35-42.84,30.09-27.03,21.07-51.73,45.01-73.76,71.26-13.67,16.29-26.45,33.29-39.23,50.27-1.86,2.48-1.5,6.57,0,9.08,19.44,32.69,43.14,62.95,70.13,89.74,26.86,26.65,57.11,50.06,89.69,69.31,18.55,10.96,37.88,20.44,57.78,28.67,2.01,.83,5.15,.13,6.94-.91s3.65-3.23,4.14-5.38c.52-2.3,.41-4.89-.91-6.94s-3.09-3.19-5.38-4.14h0Z"/><g id="d"><g id="e"><g><ellipse class="i" cx="234.6" cy="205.07" rx="77.5" ry="91" transform="translate(-9.53 11.44) rotate(-2.74)"/><path d="M230.28,114.67c42.41-2.03,78.85,36.88,81.23,86.72,2.38,49.84-30.18,92.05-72.59,94.07s-78.85-36.87-81.23-86.72c-2.38-49.85,30.18-92.05,72.59-94.07m-.05-1c-43.03,2.06-75.95,44.65-73.54,95.12s39.25,89.73,82.28,87.67,75.95-44.65,73.54-95.12-39.26-89.73-82.28-87.67h0Z"/></g><path class="j" d="M158.22,186.28c-.44-.14-.07,.03-.51,.25-.36,.18-.72,.32-1.1,.43-1.11,.31-2.25,.45-3.39,.5-2.12,.08-4.22-.24-6.24-.86-4-1.24-7.52-3.87-10.12-7.11s-4.94-7.53-5.47-11.76,1.84-7.4,5.51-9.36c3.88-2.09,8.59-2.98,12.95-3.26,2.05-.13,4.34-.27,5.83,1.4,1.15,1.31,1.67,3.16,1.95,4.85,.78,4.65,.55,9.5-.5,14.09-.49,2.12-2.37,10.57-6.1,8.18-1.92-1.23-3.29-3.82-4.1-5.88-.88-2.24-1.44-4.81-1.19-7.22s3.07-3.76,5.18-4.44c2.39-.77,4.89-.83,7.32-.25,1.88,.45,2.53-2.47,.66-2.92-2.74-.66-5.6-.61-8.32,.15-2.49,.69-5.37,2.07-6.84,4.28s-1.11,5.58-.59,8.15c.57,2.78,1.72,5.41,3.39,7.71s3.65,4.23,6.48,3.76c2.37-.39,4.02-2.48,4.99-4.54,2.5-5.31,3.33-11.68,3.01-17.48-.27-4.71-1.22-11.03-6.54-12.56-2.8-.81-6.17-.25-8.98,.23s-5.75,1.19-8.42,2.36c-4.73,2.07-8.66,5.67-8.81,11.13-.07,2.88,.9,5.77,2.06,8.36,1.16,2.59,2.57,4.96,4.36,7.13,3.88,4.67,9.3,8.06,15.4,8.74,2.81,.32,6.39,.33,8.94-1.11,2.39-1.35,2.71-4.91-.17-5.87-1.83-.61-2.47,2.32-.66,2.92h0Z"/><path class="j" d="M161.66,171.34c-2.96-1.67-5.86-3.45-8.67-5.37-2.52-1.72-5.26-3.49-7.24-5.85-1.68-2.01-2.47-4.57-1.11-6.97,1.17-2.07,3.45-3.47,5.61-4.33,4.32-1.74,10.97-2.61,14.22,1.58,1.87,2.39,2.42,5.79,3.09,8.68,.78,3.39,1.35,6.85,1.2,10.34-.26,5.99-3.44,12.45-9.63,14.07l1.97,1.36c-1.87-10.83,3.26-23.98,14.66-27.16,4.96-1.38,10.78-.38,14.55,3.28,3.42,3.32,4.89,9,2.87,13.42s-6.81,6.62-11.46,6.79c-5.35,.19-10.23-2.46-14.08-6-4.18-3.83-7.89-8.9-9.85-14.26-1.77-4.87-1.88-10.84,1.66-15.01,2.8-3.3,8.36-4.61,11.88-1.58,4.18,3.6,2.41,10.5,.08,14.62-1.23,2.17-2.94,4.18-5.17,5.37-1,.54-2.11,.87-3.24,.94-1.7,.1-2.39-.55-2.83-2.13-1.43-5.03-.17-10.46,2.39-14.9,5.91-10.19,18.14-13.68,29.26-13.45,5.13,.11,12.45,.72,14.68,6.31,2,5.01-3.07,9.14-7.38,10.35-5.05,1.43-10.67,.33-15.04-2.47s-7.42-7.89-8.05-13.16,.95-11.26,5.34-14.68c4.39-3.42,10.49-4.57,15.97-4.66,5.47-.09,11.35,1.14,16.46,3.57,4.36,2.07,10.94,5.85,11.12,11.39,.15,4.83-5.24,6.92-9.19,7.59-5.51,.92-11.47,.4-16.95-.55-5.89-1.02-11.63-2.82-17.03-5.38-4.99-2.37-10.64-5.32-13.99-9.85-1.4-1.9-2.64-4.38-1.88-6.78s3.07-3.59,5.28-4.33c5.71-1.9,12.1-2.47,18.09-2.59,5.99-.12,12.52,.52,18.62,1.9,2.99,.68,5.99,1.49,8.85,2.58,2.15,.83,4.55,1.96,5.84,3.96,3.33,5.17-4.45,9.94-8.12,11.9-5.3,2.83-11.39,4.21-17.39,4.02-2.69-.09-5.16-.83-6.3-3.47-.98-2.25-.73-4.76,.36-6.91,2.5-4.93,8.22-8.01,13.2-9.84,5.58-2.04,11.51-2.81,17.42-2.93,4.2-.08,12.76-.66,12.34,5.72-.34,5.01-6.23,8.49-10.59,9.61-2.05,.53-4.41,.67-6.37-.26-2.07-.99-3.18-3.04-3.17-5.3,.03-5.83,5.67-8.9,10.55-10.34,5.37-1.58,11.09-2.38,16.69-2.16s11.16,1.63,15.54,4.96c3.84,2.92,6.97,8.65,2.46,12.48-3.69,3.13-9.28,3.16-13.81,2.48-3.09-.45-6.12-1.28-8.98-2.51-2.39-1.04-5.32-2.37-6.36-4.96-.99-2.45-.09-5.35,1.53-7.32,1.83-2.23,4.46-3.62,7.09-4.68,5.89-2.37,12.2-3.67,18.55-3.87,5.58-.19,11.88,.12,17,2.59,2.11,1.02,4.08,2.5,5.1,4.67,1.07,2.3,.8,4.99-.26,7.25-2.44,5.18-8.38,7.51-13.74,8.24-4.2,.57-9.25,.24-12.7-2.49-3.83-3.03-3.87-8.07-.84-11.72,3.4-4.1,8.59-5.22,13.55-3.54s9.24,5.89,12.17,10.31c3.35,5.07,5.55,10.93,6.3,16.96,.34,2.74,.71,5.96-1.01,8.35-1.25,1.73-3.31,2.63-5.34,3.08-4.81,1.06-10.07-.28-14.58-1.99-5.27-2-10.13-5.02-14.23-8.89-1.95-1.84-4.06-3.96-4.77-6.63-.66-2.51,.45-4.93,2.26-6.66,4.62-4.37,11.82-2.87,17.4-1.74,6.03,1.2,11.97,2.84,17.77,4.89s11.48,4.53,16.95,7.38c2.73,1.42,5.41,2.94,8.03,4.55,2.28,1.4,4.87,2.94,6.14,5.39,2.98,5.73-3.15,10.99-7.2,13.98s-10.48,7.78-15.93,4.84c-2.44-1.32-4.02-3.82-5.39-6.15-1.58-2.7-2.9-5.53-3.95-8.48s-1.81-5.82-2.29-8.83-.82-5.98-.36-8.91c.87-5.56,5.09-9.17,10.38-10.51,6.09-1.53,12.66,.15,18.55,1.82,11.1,3.14,21.7,8.27,31.05,15.03,4.69,3.38,9.12,7.16,13.13,11.33,2.04,2.13,3.95,4.42,5.5,6.95,1.34,2.18,3.54,5.79,2.45,8.4-.87,2.08-3.5,2.97-5.51,3.46-3.14,.75-6.46,.9-9.67,.8-6.71-.2-13.3-1.76-19.76-3.49-12.67-3.39-25.04-7.88-36.93-13.42-10.23-4.76-20.39-10.41-28.08-18.83-1.91-2.09-3.73-4.38-5.13-6.85-1.3-2.29-1.97-5.14,.13-7.17,1.62-1.57,4.02-2.21,6.16-2.69,3.17-.69,6.41-1.16,9.61-1.65,13.1-2.05,26.31-3.35,39.55-3.93l-.54-2.93c-9.3,2.39-18.61,4.7-27.93,6.96s-18.44,4.99-27.92,4.52l1.18,2.51c2.78-3.55,6.51-6.08,10.84-7.33l-1.94-1.76c-1.09,6.69-4.12,12.85-8.78,17.77-1.33,1.41,.89,3.42,2.22,2.02,4.99-5.26,8.33-11.97,9.5-19.14,.19-1.14-.79-2.08-1.94-1.76-4.79,1.38-9.05,4.24-12.12,8.16-.84,1.07-.13,2.44,1.18,2.51,9.56,.47,19.02-2.33,28.23-4.54s18.96-4.65,28.41-7.08c1.66-.43,1.12-3-.54-2.93-15.85,.71-31.67,2.45-47.29,5.24-5.19,.93-12.32,2.77-12.27,9.36,.03,3.33,2.14,6.36,4.05,8.92s4.09,4.96,6.44,7.14c9.98,9.29,22.8,15.25,35.29,20.37,7.08,2.91,14.31,5.46,21.63,7.66s14.68,4.22,22.23,5.02c3.9,.41,7.84,.51,11.74-.02,2.88-.39,5.96-.98,8.33-2.79,5.87-4.49,1.25-12.36-2.19-16.92-4.06-5.38-9.27-10.01-14.59-14.12s-10.79-7.57-16.67-10.54-12.31-5.48-18.78-7.28-14.03-3.47-20.83-1.32c-6.22,1.97-10.75,6.84-11.43,13.43-.69,6.59,1.12,14.11,3.66,20.37,1.32,3.25,2.92,6.46,4.91,9.35,1.82,2.64,4.16,4.94,7.32,5.82,6.59,1.83,13.17-3.1,18.07-6.87s10.26-10.16,6.92-16.79c-1.42-2.82-4.1-4.66-6.7-6.29-2.97-1.87-6.04-3.61-9.16-5.22-6.35-3.29-12.98-6.06-19.78-8.29-6.79-2.24-13.66-4.07-20.66-4.96-6.4-.82-14.1,.22-17.21,6.74-3.11,6.52,2.12,11.97,6.66,15.84,4.99,4.26,10.9,7.4,17.2,9.19,5.22,1.48,11.23,2.22,16.24-.37,2.35-1.21,4.13-3.27,4.89-5.82,1.03-3.41,.33-7.35-.36-10.78-1.33-6.6-4.27-13.08-8.59-18.27-3.95-4.74-9.37-8.69-15.69-9.21-5.75-.48-11.48,2.7-14.12,7.86-2.61,5.12-.92,10.97,3.83,14.1,4.36,2.88,10.16,3.21,15.18,2.29,6.35-1.16,12.91-4.25,15.34-10.66,1.06-2.8,1.19-5.94-.07-8.71-1.15-2.56-3.26-4.49-5.69-5.82-5.73-3.07-13-3.49-19.35-3.29-7.21,.23-14.66,1.76-21.21,4.84-5.42,2.55-10.94,8.03-8.78,14.62,1.03,3.15,3.88,5.12,6.74,6.49,3.18,1.51,6.58,2.6,10.05,3.19,5.44,.93,11.79,.98,16.48-2.39,2.19-1.57,3.75-3.85,4.07-6.56,.36-3.16-1.01-6.16-3.03-8.51-4.1-4.79-10.65-7.19-16.76-7.95-6.52-.81-13.16-.03-19.5,1.58-5.91,1.5-12.11,4.52-13.8,10.91-.75,2.85-.36,6.04,1.53,8.38,1.68,2.06,4.13,3.09,6.75,3.26,5.47,.37,11.56-2.66,14.97-6.87,2-2.47,3.06-5.7,2.18-8.83-.81-2.92-3.37-4.7-6.2-5.42-3.01-.76-6.33-.63-9.4-.55-3.39,.08-6.77,.4-10.09,1.01-6.58,1.21-13.16,3.66-18.3,8.07-4.42,3.8-7.4,9.84-4.43,15.47,3.26,6.16,12.09,4.94,17.76,3.75,3.35-.71,6.57-1.9,9.61-3.46,2.87-1.49,5.79-3.34,7.93-5.82s3.34-5.51,2.33-8.62c-.87-2.66-3.17-4.52-5.57-5.78-2.86-1.49-6.1-2.4-9.21-3.21-3.49-.92-7.04-1.6-10.63-2.03-7.3-.88-14.72-.81-21.99,.33-5.49,.85-13.42,1.85-15.49,8-2.07,6.15,3.55,11.82,8.09,14.96,11.31,7.82,25.05,12.03,38.8,11.98,5.29-.01,11.43-.64,15.37-4.59,1.89-1.89,2.86-4.6,2.52-7.27-.42-3.26-2.5-6.06-4.91-8.19-4.76-4.23-11.11-6.92-17.31-8.12-6.19-1.21-13.32-1.02-19.54,1.1-3,1.02-5.88,2.58-8.14,4.84s-3.75,5.3-4.5,8.4c-1.45,6.04-.08,12.75,3.57,17.76s9.38,8.06,15.48,8.61c6.1,.55,12.39-1.32,15.81-6.45s.6-11.79-4.79-14.5c-3.03-1.53-6.44-1.94-9.77-2.14s-6.95-.09-10.38,.43c-6.43,.98-12.75,3.3-17.72,7.59-4.6,3.97-7.99,9.64-8.84,15.7-.41,2.92-.3,6,.6,8.83,.41,1.29,1.11,2.55,2.35,3.21,1.46,.8,3.25,.74,4.84,.42,5.91-1.16,9.83-6.95,11.42-12.37s.71-12.83-5.42-15.24c-5.39-2.13-11.32,.19-14.44,4.91-3.57,5.39-3.06,12.39-.56,18.08s6.8,11.51,11.84,15.48c4.79,3.77,10.71,6.03,16.84,4.99,5.52-.92,10.48-4.33,12.22-9.81s-.34-12.07-4.66-15.85c-4.59-4-11.21-5.03-16.98-3.42-12.6,3.5-18.81,18.06-16.72,30.15,.17,.99,.94,1.63,1.97,1.36,6.26-1.63,10.37-7.71,11.37-13.86,.66-4.01,.26-8.05-.52-12.01-.69-3.52-1.41-7.36-3.18-10.53-3.33-5.99-10.92-6.31-16.8-4.53-5.52,1.66-11.72,6.45-9.62,12.94,1.19,3.68,4.5,6.17,7.5,8.34,3.67,2.66,7.49,5.1,11.44,7.32,1.69,.95,3.07-1.72,1.38-2.66h.01Z"/><g><ellipse class="h" cx="215.21" cy="186.97" rx="6" ry="16" transform="translate(-36.5 320.83) rotate(-68.99)"/><circle class="f" cx="220.3" cy="188.73" r="5"/></g><g><ellipse class="h" cx="261.03" cy="184.66" rx="16" ry="6" transform="translate(-54.96 135.8) rotate(-26.49)"/><circle class="f" cx="256.13" cy="186.89" r="5"/></g><path class="g" d="M201.62,237.68l74.77-6.58s-2.47,32.15-32.38,34.59c-29.92,2.43-42.39-28.01-42.39-28.01Z"/><path class="j" d="M201.06,116.23c-4.35,1.4-8.48,3.27-11.24,7.05-2.55,3.49-3.85,7.62-5.07,11.72-.18,.6,.2,1.4,.77,1.65,1.6,.72,2.99,.08,4.3-.94,1.31-1.01,2.67-2.19,3.92-3.37,2.54-2.39,4.81-5.05,6.82-7.89,.94-1.33-.37-3.21-1.94-2.27-4.98,2.99-10.71,4.36-15.88,6.97-4.87,2.47-8.86,6.26-11.62,10.95-.77,1.32,.94,2.76,2.15,1.95l17.19-11.27c1.17-.77,.64-2.97-.9-2.76-4.16,.59-6.81,4.35-9.4,7.29-3.01,3.44-5.92,6.96-8.76,10.54-5.68,7.17-11.06,14.56-16.44,21.95-1.12,1.55,.82,3.39,2.23,2.02,9.85-9.62,17.63-21.28,22.71-34.04l-2.8-1.03c-4.69,16.48-17.12,29.53-21.43,46.18l2.98,.26-1-17.27c-.28-4.76-1.03-9.97,.59-14.57s5.68-7,9.91-8.56c3.28-1.21,8.74-2.38,10.7,1.53,1,1.99,1.01,4.62,.69,6.78-.35,2.36-1.17,4.6-2.42,6.62-2.41,3.88-6.57,6.54-11.06,7.33-4.09,.72-9.92,.1-11.28-4.56s.93-9.3,3.98-12.48c3.71-3.87,9.14-5.86,14.35-6.68,.24-.04,1.26-.3,1.48-.08s-.3,1.61-.36,1.87c-.37,1.33-.82,2.64-1.34,3.91-1.1,2.67-2.51,5.18-4.16,7.54-.85,1.2,1.03,2.9,2.15,1.95,5.45-4.59,9.47-10.41,13.67-16.09s8.54-11.03,14.74-14.36l-2.25-.79c2.21,6.18-4.86,10.22-9.35,12.57l2.33,1.19c.27-6.57,4.08-12.7,9.46-16.39,2.66-1.82,5.74-3.1,8.97-3.47,1.52-.17,3.23-.23,4.62,.49,1.46,.76,1.8,2.31,1.14,3.75-1.57,3.45-6.6,3.34-9.79,3.08-2.03-.16-4.06-.56-6.01-1.14-.99-.29-1.96-.65-2.91-1.05-.87-.38-1.74-1-2.64-1.3,.16,.05-.35,.39,0,.23,.13-.06,.25-.16,.38-.24,.39-.22,.87-.33,1.28-.47,1.04-.35,2.09-.67,3.15-.96,2.14-.59,4.31-1.07,6.51-1.41s4.52-.58,6.8-.68c1.02-.05,2.04-.07,3.06-.06,.33,0,1.25,.2,1.51,.04,.03-.02-.04-.6-.22-.64-.09-.03-.68,.56-.76,.63-3.56,2.62-8.12,3.34-12.39,3.95-5.18,.73-10.4,1.16-15.64,1.32l.9,2.76c3.62-2.27,7.64-3.82,11.87-4.49l-1.41-2.2c-2.19,4.03-5.83,7.06-10.19,8.51l1.58,2.44c8.31-7.45,19.18-11.8,30.34-12.29l-1.51-1.03c.27,1.4-3.99,2.67-4.83,2.99-2.34,.89-4.75,1.62-7.2,2.16-4.84,1.07-9.89,1.38-14.83,.95l1.01,2.15c3.06-4.63,7.9-7.93,13.26-9.32,1.29-.33,2.6-.54,3.93-.63,.29-.01,1.88-.19,1.92-.15,.03-.17,.01-.14-.05,.1l-.12,.26c-.19,.33-.37,.57-.61,.87-2.1,2.54-4.54,4.83-7.15,6.85l1.94,2.27c4.82-4.73,11.11-7.91,17.77-9.09,3.27-.58,6.67-.7,9.97-.27,.34,.04,1.79,.08,1.98,.48-.07-.13-.1,0-.27,.14-.29,.22-.64,.35-.97,.47-1.86,.61-3.87,.97-5.79,1.28-4.68,.76-9.44,.95-14.16,.63l1.34,.68c.16,.25-.15,.3,.12,.33,.03,0,.31-.25,.35-.27,.4-.26,.88-.42,1.33-.61,.99-.41,1.98-.79,2.99-1.11,2.04-.68,4.14-1.21,6.26-1.56s4.39-.55,6.6-.58c.17,0,.54,.06,.68,0v-.2c.04-.27,0-.27-.1-.02-.22,.1-.43,.48-.65,.64-.83,.59-1.95,.95-2.9,1.28-3.85,1.33-8.03,1.51-11.97,.49-.43-.11-.72-.46-.52,.21,.23,.81-.01,.2,.34,.22,.4,.03,1.04-.32,1.45-.44,1.15-.32,2.3-.61,3.47-.87,2.19-.49,4.41-.85,6.64-1.12,5.07-.58,10.21-.62,15.28-.06l-1.17-1.4c-.01,.38-1.21,.7-1.48,.78-1.08,.34-2.18,.59-3.29,.84-2.24,.49-4.52,.79-6.8,.94l-1.7,.08c-.15,0-.94,.12-.77,.17,.12,.04-.18,.24,0-.04,.53-.76,1.01-1.23,1.79-1.76,1.45-.98,3.07-1.66,4.77-2.06,3.28-.78,7.18-.41,10.08,1.39,.72,.45,1.11,.77,.26,1.23s-1.87,.57-2.78,.68c-1.49,.18-3.93,.16-5.41-.12-1.37-.26-2.72-.66-3.99-1.25-.45-.22-.84-.44-1.21-.77-.06-.06-.16-.34-.22-.16-.06,.15,.28-.04,.41-.07,2.66-.43,5.35-.6,8.05-.58,1.94,.02,1.79-2.98-.14-3-1.82-.01-3.63,.05-5.44,.23-1.53,.15-3.58,.17-4.83,1.18-2.69,2.19,.19,5.05,2.39,6,2.87,1.24,6.01,1.83,9.13,1.67,2.43-.13,6.55-.52,7.47-3.28,1.01-3.04-2.55-4.75-4.85-5.56-2.6-.91-5.45-1.16-8.16-.75s-5.39,1.4-7.63,3.04c-1.8,1.32-4.44,4.82-1.4,6.46,1.45,.79,3.72,.32,5.29,.2,1.99-.17,3.96-.47,5.92-.86,2.78-.56,7.41-1.15,7.56-4.77,.02-.59-.57-1.32-1.17-1.4-5.82-.64-11.7-.63-17.5,.17-2.81,.38-5.6,.93-8.34,1.64-1.81,.47-5.23,1.16-4.95,3.74,.28,2.58,4.28,2.76,6.21,2.95,2.66,.25,5.28,.09,7.89-.51,2.21-.51,5.05-1.31,6.71-2.93,1.5-1.47,2.01-4.28-.47-5.08-1.12-.37-2.5-.18-3.67-.13-1.53,.07-3.05,.23-4.54,.46-2.7,.42-5.36,1.05-7.93,1.93-2.01,.69-5.06,1.42-6.11,3.5-.45,.88-.37,2.12,.42,2.8,.9,.8,3.08,.51,4.21,.54,5.76,.13,11.77-.47,17.32-2.1,1.82-.54,3.9-1.86,3.58-4.04-.36-2.49-3.24-2.84-5.26-3.04-10.86-1.1-21.87,2.74-29.66,10.38-1.2,1.18,.57,3.32,1.94,2.27,1.76-1.36,3.45-2.81,5.01-4.37,1.32-1.32,2.92-2.78,3.78-4.47,.73-1.43,.76-3.32-.78-4.22s-3.92-.41-5.5-.19c-7.36,1.04-13.93,5.2-18.01,11.38-.49,.74,.08,2.08,1.01,2.15,6.12,.54,12.24,.09,18.2-1.45,2.93-.76,5.81-1.76,8.54-3.05,2.25-1.06,4.15-2.8,3.64-5.46-.12-.63-.91-1.06-1.51-1.03-12,.52-23.5,5.28-32.42,13.27-1.16,1.04,.24,2.88,1.58,2.44,5.11-1.69,9.37-5.25,11.92-9.97,.5-.92-.25-2.38-1.41-2.2-4.77,.76-9.28,2.41-13.37,4.97-1.29,.81-.57,2.8,.9,2.76,5.93-.17,11.84-.7,17.7-1.63,2.44-.39,4.88-.85,7.19-1.71,2.14-.78,4.78-1.96,6.21-3.82,.64-.84,.86-1.96,.26-2.89s-1.68-1.16-2.73-1.21c-3.15-.16-6.35,.08-9.45,.45-1.94,.23-3.86,.56-5.76,.99s-3.76,.91-5.6,1.5c-1.1,.35-2.31,.66-3.26,1.34-2.04,1.45-1.64,3.83,.4,5.03,2.19,1.29,4.72,2.19,7.17,2.82,4.57,1.18,10.56,1.9,14.88-.46,3.69-2.01,5.57-7.55,1.79-10.47-3.34-2.57-8.5-1.64-12.16-.32-9.18,3.29-15.9,12.12-16.3,21.84-.05,1.24,1.42,1.66,2.33,1.19,3.2-1.66,6.55-3.49,8.73-6.44,2.03-2.75,3.02-6.28,1.83-9.58-.35-.96-1.39-1.26-2.25-.79-12.72,6.83-17.71,21.44-28.41,30.45l2.15,1.95c1.74-2.48,3.2-5.13,4.33-7.94,.56-1.39,1.04-2.8,1.45-4.24s.82-2.97-.1-4.29c-1.57-2.24-5.27-1.01-7.4-.51-2.85,.68-5.64,1.71-8.2,3.18-4.82,2.76-8.77,7.42-9.79,12.95-.5,2.73-.36,5.73,1.02,8.21s3.75,3.81,6.32,4.48c5.29,1.38,11.34-.04,15.71-3.22s7.38-8.44,7.88-13.97c.25-2.76,.05-5.85-1.44-8.26-1.29-2.09-3.56-3.29-5.96-3.58-5-.59-10.67,1.67-14.59,4.65-2.55,1.94-4.4,4.45-5.39,7.5s-1.03,6.19-.92,9.27c.28,7.73,.88,15.46,1.32,23.18,.1,1.71,2.55,1.89,2.98,.26,4.3-16.61,16.74-29.68,21.43-46.18,.46-1.61-2.18-2.62-2.8-1.03-5,12.56-12.58,23.95-22.27,33.42l2.23,2.02c5.11-7.01,10.2-14.02,15.56-20.84,2.63-3.35,5.31-6.64,8.09-9.87,1.44-1.67,2.9-3.33,4.39-4.96,1.2-1.31,2.6-2.88,4.47-3.14l-.9-2.76-17.19,11.27,2.15,1.95c2.67-4.53,6.65-7.99,11.41-10.22s10.33-3.73,15.06-6.57l-1.94-2.27c-1.59,2.25-3.34,4.38-5.27,6.37-.91,.93-1.86,1.84-2.84,2.7-.56,.49-1.13,.97-1.71,1.43-.26,.2-1.26,1.21-1.6,1.06l.77,1.65c1.07-3.57,2.17-7.28,4.36-10.36,2.43-3.41,6.07-4.98,9.95-6.22,1.84-.59,.91-3.45-.94-2.85h0v-.02Z"/><path class="j" d="M269.55,127.79c5.65,3.7,10.43,8.54,15.16,13.33,1.24,1.26,3.08-.51,2.27-1.93-3.96-6.88-9.21-12.97-15.42-17.91-1.37-1.1-3.04,.42-2.27,1.93,2.74,5.35,6.74,9.98,11.64,13.47,1.3,.93,3.27-.4,2.27-1.93-5.9-8.99-13.89-16.47-23.24-21.76-1.06-.6-2.68,.59-2.12,1.79,2.13,4.57,5.21,8.62,9.12,11.81,1.94,1.58,4.07,2.96,6.32,4.06,2.02,.98,4.97,2.61,7.23,1.65s2.31-3.6,1.53-5.56c-.88-2.18-2.62-4.13-4.25-5.78-3.54-3.61-8.13-6.27-13.05-7.43-2.7-.63-5.64-.73-8.16,.59-2.14,1.11-3.78,3.22-3.84,5.7-.06,2.26,1.29,4.54,3.45,5.31,2.16,.77,4.67-.31,6.03-2.17,3.43-4.65-.58-10.65-4.51-13.49-2.02-1.46-4.52-2.44-7.06-2.04-2.68,.43-3.82,2.71-3.78,5.24,.04,2.85,1.31,5.63,3.31,7.64,1.65,1.65,5.41,3.69,6.45,.25,.71-2.37-.62-5.43-1.95-7.34-1.6-2.3-3.86-3.93-6.51-4.79-1.02-.33-1.78,.67-1.83,1.54-.18,3.06,2.78,5.33,4.92,7.05,2.47,1.97,5.15,3.66,8.01,5.01,1.49,.7,3.06-1.31,1.71-2.44-1.16-.97-2.08-2.04-2.85-3.33-.43-.72-1.39-.83-2.07-.44l.28-.06-1.71,2.44c1.37,.73,2.61,1.57,3.78,2.57,1.46,1.25,3.49-.96,2.02-2.22-1.36-1.17-2.83-2.17-4.41-3.01s-2.87,1.25-1.71,2.44c.95,.96,2.25,1,3.38,.36l-2.07-.44c.89,1.49,2.02,2.8,3.35,3.91l1.71-2.44c-2.37-1.12-4.63-2.45-6.71-4.04-1.01-.77-1.98-1.59-2.9-2.46s-1.78-1.73-1.71-3.04l-1.83,1.54c3.05,1,5.45,3.71,6.14,6.84,.08,.33,.07,.67,.15,.98,.01,.09,.04,.32,0,.41,.17-.41,.17-.04-.13-.33-.6-.62-1.39-1.02-1.96-1.73-1.05-1.31-1.72-2.95-1.81-4.63-.03-.63-.07-1.57,.36-2.1,.49-.59,1.56-.51,2.24-.42,1.82,.24,3.43,1.33,4.73,2.57,2.14,2.03,5.16,6.52,1.88,8.95-1.25,.92-2.69,.43-3.2-1.02s.31-2.94,1.54-3.78c3.08-2.12,7.58-.67,10.69,.72s5.98,3.49,8.32,6.05c1.05,1.14,2.24,2.5,2.81,3.96,.14,.34,.5,1.29,.19,1.64-.41,.45-1.74-.2-2.17-.37-7.21-2.68-13.31-8.28-16.56-15.26l-2.12,1.79c8.9,5.06,16.49,12.19,22.12,20.75l2.27-1.93c-4.72-3.37-8.49-7.73-11.14-12.88l-2.27,1.93c6.04,4.79,11.08,10.64,14.92,17.33l2.27-1.93c-4.92-4.98-9.91-9.92-15.79-13.76-1.62-1.05-2.99,1.61-1.38,2.66h0l-.07-.03Z"/><path class="j" d="M281.79,132.17c1.85,7.22,6.48,13.41,12.76,17.36,1.22,.77,2.7-.67,2.27-1.92-1.94-5.79-5.71-10.65-10.74-14.1-.84-.58-2.15,.14-2.31,1.08-1.08,6.04,.38,12.33,4.14,17.21,.66,.86,2,.78,2.58-.14,1.67-2.66,2.93-5.57,3.68-8.62,.65-2.64,1.04-5.62-.63-7.97-.93-1.31-2.98-.66-2.96,.96,.05,4.29,.73,8.59,2.05,12.67,.68,2.12,1.53,4.16,2.53,6.14,.77,1.55,1.68,3.45,3.57,3.85,2.03,.42,2.99-1.37,3.31-3.04,.44-2.22,.62-4.53,.58-6.81-.08-3.52-.37-8.37-3.87-10.26-1.08-.58-2.41,.3-2.36,1.51,.23,4.53,1.99,8.68,3.98,12.69,.89,1.8,1.74,3.69,3.12,5.19,1.14,1.26,3.05,2.42,4.81,1.91,3.63-1.05,2.19-6.62,.73-8.92-2.23-3.55-6.52-3.13-9.11-.2-3.15,3.57-4.45,8.8-4.34,13.45,.02,1.15,1.52,2.04,2.49,1.28,5.27-4.18,9.06-9.81,10.9-16.29l-3.18-.28c-.1,5.45-.41,10.89-.94,16.32l2.66-.84-18.86-17.61-1.83,2.62c2.19,1.12,4.28,2.42,6.22,3.92,1.58,1.23,4.36,2.99,4.17,5.27l.42-1.16-.21,.18,1.11-.53c.4,.23,.46,.15,.19-.2-.12-.29-.24-.59-.35-.9-.16-.45-.32-.91-.46-1.36-.33-1.08-.6-2.19-.77-3.31-.33-2.23-.36-4.51-.06-6.73l-2.93,.14c1.17,2.87,1.62,5.85,1.37,8.94l2.93-.14c-.25-1.75-.59-4.25,.1-5.96s2.92,.58,3.54,1.25c1.25,1.33,3.15-.77,1.9-2.09-1.74-1.85-4.52-3.71-6.96-1.8-1.11,.87-1.36,2.26-1.5,3.58-.19,1.73-.17,3.45,.08,5.17,.27,1.83,2.68,1.67,2.83-.14,.25-3.1-.24-6.2-1.41-9.08-.48-1.17-2.53-1.37-2.72,.13-.4,3.06-.26,6.11,.46,9.12,.34,1.36,.73,3.01,1.53,4.18,.7,1.03,2.15,1.61,3.16,.68s.56-2.59,0-3.63c-.65-1.24-1.75-2.22-2.8-3.12-2.24-1.91-4.7-3.54-7.32-4.88-1.43-.73-2.79,1.2-1.61,2.31l16.58,15.48c.71,.66,2.23,.36,2.34-.74,.49-5.02,.78-10.06,.89-15.11,.03-1.66-2.38-1.71-2.8-.24-1.4,4.94-4.34,9.38-8.36,12.57l2.19,1.12c-.07-3.18,.74-6.58,2.61-9.2,.68-.96,1.99-2.34,3.27-1.58,.96,.58,1.34,2,1.51,3.03,.05,.31,.18,1.34,.05,1.4-.23,.11-1.25-.9-1.41-1.08-.95-1.11-1.55-2.54-2.19-3.83-1.56-3.14-2.96-6.4-3.14-9.95l-2.07,1.33c1.96,1.05,1.85,4.78,1.89,6.64,.03,1.45-.06,2.9-.28,4.34-.06,.37-.13,.74-.2,1.11-.03,.17-.07,.33-.11,.51l.58-.21s-.89-1.3-.95-1.41c-2.59-4.89-3.88-10.37-3.95-15.89l-2.6,.84c1.14,1.61,.44,3.9-.04,5.63-.6,2.13-1.53,4.12-2.7,5.98l1.66-.08c-3.16-4.18-4.51-9.42-3.59-14.6l-2.31,1.08c4.31,2.95,7.5,7.31,9.17,12.24l2.27-1.92c-5.59-3.52-9.56-9.14-11.19-15.51-.51-2.01-3.57-1-3.06,1.01h0v-.03Z"/><path class="j" d="M184.22,149.99c-1.19,4.99-6.09,8.61-11.84,7.2-.36-.09-.71-.22-1.05-.36-.81-.34-1.68-.76-2.26-1.47-.7-.86-.6-2.06-.54-3.11,.25-4.07,1.49-8.17,3.25-11.83,1.5-3.13,3.53-6.2,6.36-8.26,2.53-1.85,6-3.11,9.06-1.82,1.28,.53,2.41,1.56,2.47,3.02,.07,1.57-1.13,2.87-2.37,3.68-2.83,1.86-7.03,1.7-9.72-.38-1.28-.98-2.52-2.68-1.86-4.37,.54-1.39,2.14-2.22,3.44-2.76,4.3-1.76,9.13-2.6,13.73-2.97,5.03-.4,10.05-.11,14.99,.87,1.89,.37,2.55-2.55,.66-2.92-5.57-1.1-11.29-1.39-16.94-.83-2.73,.27-5.46,.75-8.12,1.41-2.38,.58-4.83,1.24-6.98,2.43-1.78,.98-3.37,2.5-3.83,4.55-.51,2.31,.58,4.61,2.2,6.21,3.23,3.21,8.76,3.91,12.8,1.98,3.74-1.78,6.65-6.24,3.94-10.16-2.46-3.56-7.6-3.84-11.33-2.47-4.3,1.59-7.53,5.08-9.83,8.93-2.56,4.29-4.29,9.37-4.79,14.34-.3,2.95-.23,5.71,2.39,7.57,2.25,1.6,5.22,2.24,7.94,1.99,5.45-.5,9.89-4.5,11.15-9.79,.45-1.88-2.48-2.53-2.92-.66h0Z"/><path class="j" d="M267.89,118.02c-1.82,3.13-6.6,3.52-9.06,.99l-.54,2.56c4.72-1.25,9.77,2.06,10.85,6.74l2.46-1.59c.05,.05,.16,.3,.12,.03-.02-.14,.11,.05-.02,.04l-1.59-1.44,.51-.9-.3-.05c-.13-.09-.7-.14-.82-.16-.54-.12-1.07-.26-1.6-.42-1.07-.32-2.11-.73-3.13-1.18-2.06-.89-4.04-1.94-6.06-2.92-4.22-2.02-8.48-3.24-13.15-3.54-9.94-.64-20.25,.76-29.95,2.87-5.64,1.23-11.19,2.84-16.61,4.81l1.99,1.37c-.52-5.89,5.87-8.49,10.68-9.09,.72-.09,2.4-.57,2.33,.61-.06,1.09-1.53,1.77-2.41,2.13-2.63,1.06-5.59,.95-8.15-.23l.64,2.04c.28-.64,.67-.93,1.39-.94l-1.19-2.53-2.45,2.41,2.24,2.04c.67-.91,1.47-1.7,2.47-2.24,.02,0,.93-.45,.6-.56,.04,.02-.04,.35-.05,.37-.14,.4-.35,.78-.58,1.13-1.18,1.76-3.06,2.99-5,3.77-4.9,1.97-10.34,1.41-15.5,2.04l1.52,1.04c-.42-1.79,3.62-3.72,4.84-4.38,2.14-1.15,4.46-1.97,6.82-2.5,4.6-1.04,9.49-.83,13.99,.58,1.83,.57,4.84,1.47,5.6,3.46,.85,2.26-1.52,4.7-3.14,5.94-1.83,1.41-3.97,2.3-6.19,2.9-1.07,.28-2.15,.49-3.25,.63-.58,.08-1.17,.14-1.75,.18-.25,.01-.52,.03-.78,.06-.48,.06-.53,.23-.69-.1-.32-.66,.33-2.31,.58-2.94,.37-.96,.89-1.87,1.51-2.67,1.29-1.65,2.98-2.99,4.89-3.84,4.49-2.01,9.66-1.13,13.89,1.13,1.05,.56,2.05,1.19,2.98,1.91,.83,.64,2.39,1.65,2.44,2.83,.1,2.06-3.6,2.76-5.03,2.92-2.54,.28-5.16-.12-7.47-1.24-2.03-.99-4.1-2.5-2.64-4.9,1.31-2.16,3.87-3.4,6.11-4.36,2.48-1.06,5.07-1.81,7.68-2.43,5.69-1.36,11.52-2.16,17.37-2.42,2.57-.12,5.41-.39,7.96,.05,.66,.12,1.75,.31,2.14,.95,.57,.93-.74,2.3-1.29,2.96-3.07,3.76-7.44,6.18-12.01,7.6-5.56,1.72-11.43,2.03-17.2,2.27-2.84,.12-5.71,.24-8.53-.14-2.16-.3-5.01-.78-6.45-2.63-1.35-1.74,.15-3.48,1.64-4.44,2.06-1.32,4.64-1.9,7-2.4,5.39-1.13,11.23-1.26,16.69-.57,3.95,.51,8.88,2.36,7.61,7.31s-7.34,6.6-11.85,7.3c-2.84,.44-5.71,.63-8.58,.55-2.02-.04-4.45-.1-6.19-1.3-2.06-1.43-1.07-3.95,.65-5.21,2.14-1.58,5.1-2.28,7.65-2.84,2.82-.62,5.71-.86,8.6-.81l-.14-3.03-2.49,.09c-1.95,.07-1.8,3.1,.14,3.03l2.49-.09c1.97-.07,1.79-2.99-.14-3.03-3.8-.07-7.59,.4-11.25,1.41-3.06,.84-6.6,1.97-8.5,4.71-1.68,2.4-1.66,5.61,.55,7.67,1.96,1.82,4.81,2.22,7.35,2.36,3.66,.21,7.35-.03,10.96-.66,3.12-.54,6.3-1.32,8.97-3.09,4.69-3.1,7.18-10.14,2.45-14.39-2.02-1.81-4.81-2.58-7.43-2.94-3.46-.46-7.03-.55-10.53-.39s-7.23,.7-10.71,1.69c-2.64,.75-5.47,1.82-7.23,4.06s-1.67,5.11,.21,7.18c2.06,2.29,5.39,3.08,8.33,3.43,3.58,.44,7.19,.24,10.78,.07s7.33-.45,10.94-1.1c6.37-1.15,12.69-3.63,17.28-8.34,1.86-1.91,4.53-4.95,2.92-7.76-1.29-2.26-4.24-2.63-6.6-2.68-7.43-.18-14.89,.57-22.16,2.11-3.4,.72-6.81,1.59-10.02,2.96-2.9,1.24-5.87,2.79-7.65,5.5-4.32,6.6,4.8,10.63,10.06,10.96,2.86,.18,6.22-.3,8.52-2.13,2.48-1.97,2.63-5,.49-7.31-4.13-4.44-11.08-7.15-17.11-6.49-5.42,.58-10.67,4.04-12.75,9.19-.87,2.13-1.94,6.21,.97,7.29,1.39,.52,3.25,.12,4.69-.08,1.56-.22,3.1-.51,4.61-.97,2.81-.84,5.47-2.22,7.59-4.26s3.97-5.17,2.92-8.2c-.96-2.79-3.95-4.11-6.51-5.04-2.85-1.04-5.84-1.59-8.87-1.72-6.02-.25-12.17,1.36-17.26,4.61-2.41,1.54-5.11,3.65-4.36,6.86,.14,.6,.9,1.12,1.52,1.04,6.9-.84,14.71,.15,20.45-4.58,1.87-1.54,4.71-4.71,3.13-7.3-2-3.27-6.47,.38-7.92,2.32-1.15,1.55,.83,3.43,2.24,2.04l2.45-2.41c.99-.97,.04-2.54-1.19-2.53-1.71,0-3.24,.98-3.93,2.55-.32,.72-.14,1.69,.64,2.04,3.77,1.74,8.27,1.78,11.95-.26,1.48-.81,2.78-2.13,3-3.86s-.67-3.53-2.42-4.05c-1.85-.56-4.18,.06-6.01,.46-1.92,.43-3.82,1.12-5.49,2.19-3.2,2.05-5.47,5.67-5.14,9.56,.09,.95,1.02,1.72,1.99,1.37,10.13-3.68,20.68-6.09,31.4-7.09,5.11-.48,10.42-.87,15.55-.34s9.08,2.44,13.45,4.59c2.16,1.06,12.61,6.56,12.79,1.3,.03-.83-.82-1.46-1.59-1.44-2.66,.07-3.75,3.37-2,5.19,1.15,1.19,2.77-.25,2.46-1.59-1.46-6.35-8.46-10.31-14.67-8.67-1.17,.31-1.29,1.8-.54,2.56,3.88,3.98,11.04,2.9,13.79-1.83,.98-1.7-1.7-3.08-2.69-1.4h0v.03Z"/><path d="M217.4,237.31c-.1,6.41-.58,12.81-1.45,19.16-.26,1.9,2.67,2.58,2.92,.66,.9-6.62,1.42-13.28,1.52-19.97,.03-1.93-2.97-1.78-3,.14h0Z"/><path d="M233.09,234.57l-2.59,15.3c-.8,4.76-1.4,9.64-3.03,14.21-.64,1.81,2.29,2.45,2.92,.66,1.63-4.57,2.23-9.44,3.03-14.21l2.59-15.3c.32-1.9-2.61-2.57-2.92-.66h0Z"/><path d="M251.77,233.67l-6.25,31.17c-.38,1.89,2.54,2.55,2.92,.66l6.25-31.17c.38-1.89-2.54-2.55-2.92-.66h0Z"/><path d="M264.45,233.75c1.31,7.44,.72,15-1.72,22.15-.62,1.82,2.31,2.46,2.92,.66,2.52-7.35,3.14-15.3,1.8-22.95-.14-.8-.69-1.46-1.57-1.43-.73,.03-1.56,.78-1.43,1.57h0Z"/><path d="M201.96,239.39c7.27,7.08,17.3,9.93,27.2,10.59,11.07,.73,22.51-.79,32.54-5.66,5.61-2.72,10.69-6.41,15.06-10.83,1.36-1.38-.86-3.39-2.22-2.02-7.3,7.4-16.78,12.49-26.99,14.46-9.76,1.89-20.59,1.91-30.15-1-5.02-1.53-9.67-4.08-13.43-7.75-1.39-1.36-3.4,.87-2.02,2.22h0Z"/><path class="j" d="M235.88,294.22c1.23,1.64-.23,3.84-2.08,4.08-2.73,.37-4.88-1.86-6.11-4-.34-.6-.64-1.22-.91-1.86-.14-.31-.24-.65-.39-.95-.17-.34-.24-.36-.08-.53,.32-.34,1.45-.33,1.88-.34,.63,0,1.25,.11,1.81,.39,.96,.48,1.82,1.63,1.56,2.76-.19,.86-1.21,1.61-2.08,1.22l.73,.87c-.54-2.11,.78-4.26,2.59-5.28,2.14-1.2,4.99-1.06,7.24-.24,1.64,.6,4.21,2.32,3.44,4.42-.29,.79-1.02,1.33-1.71,1.74-.45,.27-.91,.48-1.39,.68-.28,.1-.54,.21-.82,.31l-.33,.11c-.36,.08-.4,.11-.11,.11h.18l-.03-.56c.01-.2,.07-.43,.12-.63,.08-.29,.21-.57,.36-.83,.54-.95,1.32-1.74,2.21-2.4,1.51-1.13,3.99-3.23,6.11-2.99,2.74,.32,1.1,3.73,.1,5.1-.51,.71-1.45,1.48-2.4,1.2s-.87-1.38-.58-2.09c.83-2.08,4.07-2.28,5.94-2.4,2.35-.15,5.08,.13,6.52,2.23,3.16,4.62-5.65,7.25-8.68,7.41-1.09,.05-2.34,.17-2.8-1.02-.39-1.01-.29-2.3-.06-3.33,.52-2.31,2.02-4.24,4.03-5.46,3.41-2.07,10.55-2.55,12.11,2.17,.8,2.41-1.19,4.34-3.38,4.96-2.8,.78-5.93-.28-8.58-1.13-4.97-1.6-9.9-4.14-13.12-8.37l-.44,2.07c2.11-1.66,4.1,.99,4.83,2.77,.41,.98,1.03,2.54,.24,3.48-.65,.77-1.94,.85-2.87,.92-5.44,.35-10.86-1.11-15.51-3.9l-.23,2.75c3.66-1.72,8.8-2.59,12.6-.75,.29,.14,.84,.37,.95,.69,.17,.42-.12,.57-.49,.86-.77,.64-1.69,1.11-2.62,1.46-1.98,.74-4.09,.99-6.18,1.05-1.77,.04-4.01-.04-5.29-1.46-1.06-1.17-1.12-2.91-.67-4.34,1.18-3.77,5.86-4.74,9.31-4.24,.89,.13,2.31,.34,2.65,1.34s-1.32,1.26-2.04,1.42c-2.39,.51-4.85,.07-6.98-1.1l.41,2.34c1.1-1.46,2.99-1.5,4.68-1.53,1.96-.02,3.93,.01,5.87,.11,4.07,.21,8.15,.88,11.78,2.83l-.41-2.34c-1.43,1.33-3.86,1.55-5.48,.41s-3.59,1.11-2.02,2.22c3.04,2.14,6.97,1.93,9.71-.61,.73-.68,.37-1.91-.41-2.34-4.23-2.28-8.99-2.97-13.74-3.19-2.22-.09-4.49-.21-6.72-.04-2.07,.15-4.19,.73-5.49,2.45-.58,.77-.49,1.85,.41,2.34,2.79,1.52,6,2,9.1,1.33,1.37-.3,2.89-.76,3.74-1.94s.8-2.73,.13-3.97c-1.44-2.66-5.14-3-7.83-2.83-2.84,.17-5.72,1.15-7.7,3.25-1.74,1.85-2.55,4.57-2.11,7.07,.5,2.85,2.61,4.8,5.38,5.48s6.23,.34,9.09-.34c2.41-.59,6.36-2.08,6.97-4.85,.8-3.65-4.1-4.96-6.73-5.29-3.69-.46-7.43,.08-10.8,1.66-1.17,.55-1.4,2.05-.23,2.75,3.28,1.97,6.93,3.32,10.7,3.91,3.13,.49,7.56,1.06,10.37-.79,3.24-2.12,2-6.52,.31-9.25s-5.46-4.55-8.31-2.33c-.6,.47-.96,1.39-.44,2.07,2.79,3.64,6.57,6.26,10.75,8.08s9.33,3.77,13.91,2.77c4.1-.9,7.38-4.99,5.68-9.21s-6.87-5.87-11.22-5.24-8.6,3.44-10.19,7.86c-.73,2.04-.97,4.52-.12,6.56,.93,2.22,3.01,2.81,5.23,2.74,4.24-.11,9.71-1.85,11.84-5.84,2.31-4.34-1.38-8.71-5.63-9.59-2.33-.48-4.83-.28-7.14,.21-2.06,.44-4.17,1.46-5.16,3.42-.86,1.72-.82,4.02,.56,5.46,1.46,1.52,3.85,1.5,5.58,.46,1.87-1.12,2.86-3.26,3.51-5.25,.71-2.17,.29-4.43-1.79-5.63-3.83-2.23-8.71,1.3-11.46,3.88-1.39,1.31-2.53,2.98-2.72,4.93-.22,2.37,1.08,4.4,3.66,3.7,3.69-1.01,8.04-4.16,6.19-8.51-1.75-4.13-7.25-5.76-11.36-5.15s-8.3,4.22-7.69,8.86c.14,1.11,.47,1.87,1.61,2.22,.95,.3,1.98,.22,2.9-.16,1.9-.79,3.14-2.69,2.95-4.78-.43-4.68-6.22-6.68-10.04-4.52-2.38,1.35-1.08,3.94-.2,5.84,.98,2.1,2.26,4.1,4.18,5.44,3.36,2.33,8.53,2.18,10.32-2.01,.72-1.7,.67-3.66-.46-5.16s-3.67,.09-2.51,1.63h0v.04Z"/></g></g></g></g></svg>