<?xml version="1.0" encoding="UTF-8"?><svg xmlns="http://www.w3.org/2000/svg" viewBox="0 0 233.1 202.56"><defs><style>.d{fill:#0a7fff;}.d,.e{stroke:#000;stroke-miterlimit:10;}.f{fill:#ffd59f;}.g{fill:#ff931e;}.e{fill:#fff;}</style></defs><g id="a"/><g id="b"><g id="c"><g><ellipse class="f" cx="104.36" cy="102.3" rx="77.5" ry="91"/><path d="M104.36,11.8c42.46,0,77,40.6,77,90.5s-34.54,90.5-77,90.5S27.36,152.21,27.36,102.3,61.9,11.8,104.36,11.8m0-1C61.28,10.8,26.36,51.77,26.36,102.3s34.92,91.5,78,91.5,78-40.97,78-91.5S147.43,10.8,104.36,10.8h0Z"/></g><path class="g" d="M28.96,80.19c-.43-.16-.07,.03-.52,.23-.37,.16-.73,.29-1.12,.38-1.12,.26-2.27,.34-3.41,.34-2.12-.02-4.2-.44-6.19-1.16-3.94-1.43-7.33-4.22-9.77-7.59s-4.57-7.76-4.9-12.01,2.19-7.3,5.95-9.09c3.98-1.9,8.72-2.57,13.09-2.64,2.05-.03,4.35-.06,5.76,1.68,1.09,1.36,1.52,3.24,1.72,4.94,.56,4.68,.1,9.52-1.17,14.05-.59,2.09-2.87,10.44-6.48,7.88-1.86-1.32-3.1-3.97-3.81-6.07-.77-2.28-1.21-4.87-.84-7.27s3.25-3.61,5.39-4.19c2.42-.66,4.92-.6,7.32,.1,1.86,.54,2.65-2.35,.8-2.89-2.71-.79-5.56-.88-8.32-.25-2.52,.57-5.46,1.81-7.04,3.95s-1.38,5.52-.98,8.11c.42,2.73,1.43,5.4,2.92,7.72s3.48,4.55,6.39,4.21c2.39-.28,4.13-2.29,5.2-4.3,2.75-5.18,3.88-11.51,3.84-17.32-.04-4.72-.69-11.08-5.93-12.86-2.76-.94-6.15-.54-8.98-.2s-5.8,.91-8.52,1.96C4.54,49.74,.44,53.15,.03,58.6c-.21,2.87,.62,5.81,1.66,8.45s2.33,5.08,4.01,7.33c3.65,4.85,8.9,8.49,14.96,9.47,2.79,.45,6.37,.64,8.98-.68,2.45-1.23,2.94-4.78,.11-5.87-1.8-.7-2.58,2.2-.8,2.89h0Z"/><path class="g" d="M33.11,65.13c-2.88-1.81-5.69-3.73-8.4-5.78-2.43-1.84-5.09-3.74-6.95-6.19-1.58-2.09-2.25-4.68-.78-7.02,1.27-2.01,3.61-3.3,5.81-4.06,4.4-1.53,11.08-2.08,14.13,2.26,1.75,2.48,2.14,5.9,2.67,8.82,.62,3.42,1.02,6.91,.7,10.39-.55,5.97-4.03,12.27-10.29,13.59l1.9,1.45c-1.35-10.91,4.4-23.8,15.94-26.43,5.02-1.14,10.79,.14,14.38,3.97,3.26,3.48,4.45,9.22,2.23,13.54s-7.12,6.29-11.77,6.23c-5.35-.07-10.1-2.95-13.78-6.67-3.99-4.03-7.46-9.27-9.16-14.71-1.54-4.95-1.36-10.92,2.37-14.91,2.95-3.16,8.57-4.21,11.94-1.01,4,3.8,1.91,10.6-.62,14.61-1.33,2.11-3.14,4.03-5.42,5.12-1.02,.49-2.15,.77-3.28,.78-1.7,.02-2.36-.66-2.73-2.26-1.19-5.09,.33-10.46,3.1-14.77,6.39-9.9,18.77-12.8,29.87-12.04,5.12,.35,12.4,1.31,14.36,7,1.76,5.1-3.5,8.98-7.87,9.99-5.11,1.19-10.67-.18-14.9-3.19s-7.03-8.24-7.41-13.53,1.49-11.2,6.04-14.41,10.7-4.06,16.17-3.89,11.28,1.68,16.27,4.35c4.26,2.28,10.65,6.37,10.56,11.91-.08,4.83-5.56,6.66-9.54,7.14-5.55,.66-11.48-.15-16.9-1.36-5.83-1.3-11.48-3.37-16.75-6.19-4.87-2.61-10.37-5.82-13.5-10.51-1.31-1.96-2.43-4.5-1.55-6.86s3.24-3.44,5.48-4.07c5.79-1.63,12.2-1.89,18.19-1.72s12.48,1.12,18.51,2.79c2.95,.82,5.91,1.77,8.72,3,2.11,.93,4.45,2.18,5.64,4.23,3.08,5.32-4.92,9.72-8.68,11.5-5.43,2.57-11.58,3.66-17.56,3.18-2.68-.22-5.11-1.08-6.13-3.77-.87-2.29-.5-4.79,.69-6.88,2.73-4.81,8.59-7.61,13.66-9.2,5.67-1.77,11.63-2.26,17.54-2.09,4.2,.12,12.78-.05,12.05,6.3-.58,4.99-6.63,8.18-11.04,9.09-2.07,.43-4.44,.46-6.35-.56-2.02-1.09-3.03-3.19-2.91-5.45,.31-5.82,6.09-8.62,11.03-9.82,5.44-1.32,11.19-1.85,16.77-1.36s11.07,2.16,15.29,5.7c3.7,3.1,6.55,8.97,1.86,12.58-3.84,2.95-9.42,2.71-13.91,1.82-3.06-.6-6.05-1.57-8.85-2.94-2.34-1.15-5.2-2.62-6.12-5.26-.87-2.49,.17-5.35,1.88-7.24,1.93-2.14,4.63-3.4,7.31-4.34,6-2.09,12.36-3.08,18.71-2.98,5.58,.08,11.86,.69,16.86,3.4,2.06,1.12,3.96,2.69,4.87,4.91,.96,2.35,.56,5.02-.61,7.23-2.68,5.06-8.73,7.1-14.12,7.57-4.22,.37-9.25-.2-12.57-3.09-3.68-3.21-3.48-8.25-.28-11.75,3.59-3.93,8.83-4.8,13.7-2.89s8.95,6.32,11.66,10.88c3.1,5.22,5.02,11.18,5.48,17.24,.21,2.75,.42,5.99-1.41,8.29-1.33,1.67-3.43,2.47-5.48,2.82-4.86,.83-10.05-.76-14.47-2.68-5.17-2.25-9.88-5.5-13.79-9.56-1.86-1.93-3.87-4.15-4.45-6.85-.54-2.54,.68-4.9,2.58-6.54,4.82-4.14,11.94-2.3,17.46-.91,5.97,1.49,11.82,3.41,17.52,5.73s11.25,5.07,16.58,8.18c2.66,1.55,5.26,3.19,7.8,4.93,2.21,1.51,4.72,3.17,5.88,5.68,2.7,5.87-3.67,10.83-7.86,13.62s-10.84,7.27-16.14,4.07c-2.37-1.43-3.83-4.01-5.09-6.4-1.45-2.77-2.63-5.66-3.54-8.66s-1.53-5.9-1.87-8.93-.53-6.01,.07-8.92c1.13-5.51,5.52-8.92,10.87-10,6.16-1.24,12.64,.75,18.44,2.7,10.94,3.67,21.28,9.3,30.3,16.5,4.52,3.6,8.77,7.59,12.57,11.94,1.94,2.23,3.73,4.6,5.16,7.2,1.23,2.24,3.26,5.95,2.05,8.51-.97,2.04-3.64,2.8-5.67,3.19-3.17,.6-6.5,.59-9.7,.34-6.69-.52-13.2-2.39-19.57-4.43-12.49-3.99-24.63-9.07-36.25-15.17-9.99-5.24-19.87-11.37-27.15-20.15-1.81-2.18-3.52-4.55-4.8-7.09-1.19-2.35-1.72-5.23,.47-7.16,1.69-1.49,4.12-2.02,6.28-2.39,3.2-.54,6.46-.85,9.68-1.19,13.18-1.42,26.44-2.09,39.69-2.04l-.4-2.95c-9.4,1.94-18.81,3.81-28.23,5.62s-18.66,4.1-28.1,3.18l1.06,2.56c2.95-3.41,6.79-5.76,11.18-6.8l-1.85-1.85c-1.41,6.63-4.73,12.64-9.62,17.33-1.4,1.34,.73,3.46,2.12,2.12,5.24-5.02,8.89-11.56,10.4-18.66,.24-1.13-.69-2.12-1.85-1.85-4.85,1.15-9.24,3.8-12.5,7.57-.89,1.03-.25,2.43,1.06,2.56,9.53,.93,19.11-1.42,28.41-3.19s19.16-3.74,28.72-5.71c1.68-.35,1.26-2.94-.4-2.95-15.87-.05-31.75,.93-47.49,2.97-5.23,.68-12.44,2.18-12.7,8.76-.13,3.33,1.83,6.45,3.62,9.1s3.85,5.15,6.09,7.44c9.52,9.76,22.05,16.32,34.28,22.03,6.93,3.24,14.03,6.14,21.24,8.68s14.46,4.92,21.96,6.08c3.88,.6,7.81,.88,11.73,.54,2.9-.25,6-.69,8.45-2.39,6.08-4.2,1.84-12.29-1.38-17.01-3.8-5.57-8.78-10.44-13.9-14.8s-10.42-8.08-16.15-11.32-12.03-6.06-18.41-8.17-13.85-4.14-20.74-2.31c-6.31,1.67-11.06,6.32-12.06,12.87s.44,14.15,2.68,20.52c1.16,3.31,2.61,6.59,4.46,9.57,1.69,2.72,3.92,5.13,7.03,6.16,6.5,2.14,13.3-2.47,18.38-6s10.73-9.66,7.71-16.44c-1.28-2.88-3.87-4.85-6.39-6.6-2.88-2.01-5.86-3.89-8.9-5.65-6.19-3.59-12.68-6.67-19.36-9.23s-13.45-4.72-20.4-5.94c-6.35-1.12-14.09-.45-17.51,5.91s1.55,12.06,5.9,16.14c4.78,4.49,10.53,7.91,16.74,10,5.14,1.73,11.11,2.75,16.24,.41,2.41-1.1,4.28-3.07,5.16-5.58,1.19-3.36,.68-7.33,.16-10.78-1.01-6.66-3.64-13.27-7.71-18.66-3.72-4.92-8.94-9.13-15.23-9.95-5.72-.75-11.6,2.15-14.48,7.18-2.85,4.99-1.44,10.91,3.15,14.27,4.22,3.09,10,3.69,15.05,3.01,6.4-.86,13.1-3.63,15.83-9.92,1.19-2.75,1.47-5.88,.35-8.7-1.03-2.61-3.04-4.64-5.41-6.09C145.29,.87,138.05,.1,131.7,0c-7.21-.11-14.73,1.06-21.42,3.82-5.54,2.29-11.31,7.5-9.47,14.18,.88,3.2,3.63,5.3,6.42,6.8,3.1,1.66,6.45,2.91,9.89,3.67,5.39,1.19,11.73,1.54,16.58-1.6,2.26-1.46,3.93-3.67,4.38-6.36,.51-3.14-.71-6.2-2.62-8.65-3.87-4.98-10.29-7.69-16.36-8.74-6.47-1.12-13.14-.66-19.55,.65-5.98,1.22-12.31,3.94-14.31,10.24-.89,2.81-.65,6.02,1.13,8.44,1.58,2.14,3.98,3.28,6.59,3.58,5.45,.63,11.67-2.1,15.28-6.15,2.12-2.37,3.33-5.55,2.6-8.72-.67-2.96-3.14-4.86-5.93-5.71-2.97-.9-6.29-.93-9.36-1-3.39-.08-6.78,.08-10.13,.53-6.63,.89-13.32,3.03-18.66,7.19-4.6,3.58-7.86,9.48-5.16,15.24,2.96,6.31,11.84,5.51,17.56,4.59,3.38-.55,6.65-1.58,9.76-3,2.94-1.35,5.94-3.06,8.2-5.43s3.6-5.34,2.74-8.5c-.74-2.7-2.95-4.67-5.29-6.04-2.79-1.63-5.98-2.69-9.05-3.65-3.44-1.09-6.96-1.93-10.52-2.54-7.25-1.23-14.66-1.51-21.98-.72-5.52,.59-13.49,1.21-15.85,7.25s2.98,11.98,7.37,15.33c10.92,8.35,24.45,13.21,38.18,13.82,5.28,.24,11.45-.09,15.57-3.85,1.98-1.8,3.08-4.46,2.86-7.14-.26-3.28-2.21-6.17-4.51-8.42-4.55-4.45-10.77-7.44-16.9-8.94s-13.26-1.66-19.57,.17c-3.05,.88-6,2.3-8.36,4.45s-4,5.11-4.9,8.18c-1.74,5.96-.69,12.73,2.72,17.91s8.98,8.5,15.05,9.34,12.44-.73,16.1-5.69,1.16-11.75-4.09-14.71c-2.95-1.67-6.34-2.25-9.66-2.6s-6.94-.42-10.39-.07c-6.47,.67-12.89,2.69-18.06,6.74-4.78,3.75-8.44,9.25-9.58,15.26-.55,2.9-.59,5.98,.18,8.85,.35,1.31,.99,2.6,2.19,3.32,1.42,.87,3.21,.89,4.81,.65,5.96-.88,10.15-6.47,12-11.81s1.32-12.78-4.69-15.48c-5.28-2.38-11.32-.35-14.66,4.21-3.82,5.21-3.65,12.23-1.42,18.03s6.24,11.82,11.09,16.03c4.6,3.99,10.41,6.53,16.58,5.79,5.56-.66,10.67-3.82,12.67-9.22s.24-12.07-3.9-16.05c-4.39-4.21-10.96-5.56-16.8-4.23-12.75,2.89-19.65,17.14-18.14,29.32,.12,1,.86,1.67,1.9,1.45,6.33-1.33,10.73-7.21,12.02-13.3,.85-3.97,.64-8.03,.05-12.02-.52-3.55-1.06-7.42-2.67-10.67-3.04-6.14-10.61-6.82-16.56-5.33-5.59,1.39-12.01,5.88-10.23,12.47,1.01,3.73,4.2,6.38,7.09,8.69,3.54,2.83,7.24,5.45,11.08,7.86,1.64,1.03,3.15-1.57,1.51-2.59h0Z"/><g><ellipse class="e" cx="85.86" cy="83.3" rx="6" ry="16" transform="translate(-24.97 128.34) rotate(-66.25)"/><circle class="d" cx="90.86" cy="85.3" r="5"/></g><g><ellipse class="e" cx="131.73" cy="83.17" rx="16" ry="6" transform="translate(-22.34 60.1) rotate(-23.75)"/><circle class="d" cx="126.73" cy="85.17" r="5"/></g><path class="e" d="M69.86,133.3l75-3s-4,32-34,33-41-30-41-30Z"/><path class="g" d="M75.54,11.85c-4.39,1.19-8.59,2.86-11.51,6.51-2.7,3.36-4.19,7.43-5.6,11.46-.21,.59,.13,1.41,.69,1.69,1.56,.8,2.97,.22,4.32-.73s2.76-2.06,4.06-3.18c2.64-2.27,5.02-4.81,7.16-7.56,1-1.28-.22-3.22-1.82-2.36-5.09,2.75-10.86,3.84-16.12,6.2-4.96,2.23-9.11,5.83-12.08,10.38-.83,1.28,.8,2.8,2.05,2.05l17.63-10.44c1.2-.71,.78-2.94-.76-2.8-4.16,.39-6.98,4.02-9.69,6.83-3.16,3.29-6.22,6.67-9.21,10.11-5.99,6.89-11.69,14.02-17.39,21.14-1.19,1.49,.65,3.43,2.12,2.12,10.25-9.14,18.54-20.41,24.2-32.92l-2.74-1.16c-5.45,16.24-18.43,28.68-23.51,45.1l2.95,.4-.17-17.3c-.05-4.77-.55-10.01,1.28-14.53s5.98-6.72,10.26-8.08c3.32-1.05,8.8-1.96,10.57,2.04,.9,2.04,.78,4.66,.36,6.81-.46,2.34-1.38,4.54-2.72,6.5-2.58,3.76-6.84,6.22-11.35,6.79-4.1,.52-9.87-.37-11-5.09s1.37-9.24,4.55-12.28c3.87-3.69,9.37-5.42,14.59-5.99,.24-.03,1.27-.24,1.48-.01s-.37,1.59-.45,1.85c-.43,1.31-.94,2.6-1.52,3.84-1.22,2.61-2.74,5.05-4.5,7.33-.9,1.16,.89,2.95,2.05,2.05,5.64-4.32,9.91-9.95,14.36-15.42s9.02-10.61,15.34-13.64l-2.2-.9c1.9,6.28-5.32,9.98-9.9,12.11l2.26,1.3c.58-6.55,4.66-12.49,10.19-15.92,2.73-1.69,5.86-2.82,9.08-3.04,1.52-.1,3.22-.08,4.57,.71,1.42,.83,1.68,2.39,.96,3.8-1.73,3.37-6.72,3.02-9.88,2.61-2.01-.26-4.01-.75-5.92-1.43-.97-.34-1.92-.74-2.84-1.19-.85-.42-1.68-1.08-2.56-1.42,.16,.06-.37,.37-.02,.23,.13-.05,.26-.15,.39-.22,.4-.2,.88-.29,1.3-.41,1.05-.3,2.11-.57,3.18-.81,2.16-.49,4.34-.86,6.54-1.1s4.52-.36,6.79-.35c1.02,0,2.03,.03,3.05,.09,.33,.02,1.23,.26,1.5,.11,.03-.02-.01-.6-.19-.65-.09-.03-.7,.53-.79,.59-3.66,2.45-8.23,2.95-12.51,3.35-5.19,.48-10.4,.66-15.61,.57l.76,2.8c3.71-2.09,7.78-3.45,12.02-3.92l-1.3-2.26c-2.37,3.92-6.13,6.77-10.54,8.01l1.46,2.51c8.62-7.04,19.63-10.87,30.75-10.83l-1.45-1.1c.2,1.41-4.09,2.48-4.95,2.76-2.37,.78-4.8,1.39-7.26,1.81-4.86,.84-9.9,.91-14.79,.24l.9,2.2c3.26-4.48,8.23-7.54,13.63-8.68,1.3-.27,2.61-.42,3.94-.44,.29,0,1.88-.1,1.92-.06,.04-.17,.02-.14-.05,.1l-.13,.25c-.2,.32-.39,.55-.65,.84-2.21,2.44-4.74,4.61-7.44,6.5l1.82,2.36c5.02-4.49,11.42-7.37,18.1-8.23,3.28-.42,6.67-.38,9.93,.21,.34,.06,1.78,.17,1.95,.57-.06-.13-.1,0-.28,.13-.3,.21-.65,.32-.99,.42-1.88,.52-3.89,.78-5.82,1-4.69,.54-9.43,.5-14.11-.05l1.3,.74c.15,.26-.16,.29,.1,.34,.03,0,.32-.23,.36-.25,.41-.24,.9-.38,1.35-.55,1-.36,2.01-.69,3.03-.97,2.06-.58,4.17-1.01,6.3-1.26s4.39-.34,6.59-.26c.17,0,.53,.09,.68,.03v-.2c.06-.27,.02-.27-.09-.02-.22,.09-.45,.46-.68,.61-.85,.55-1.98,.86-2.94,1.14-3.89,1.14-8.06,1.12-11.93-.08-.42-.13-.69-.49-.53,.18,.19,.82-.02,.2,.33,.24,.4,.05,1.05-.27,1.46-.37,1.16-.26,2.32-.5,3.49-.7,2.2-.38,4.43-.64,6.66-.8,5.07-.34,10.18-.13,15.2,.67l-1.1-1.45c-.03,.38-1.24,.64-1.51,.71-1.09,.29-2.2,.49-3.31,.68-2.25,.38-4.53,.57-6.81,.61-.56,0-1.13,0-1.69,0-.15,0-.94,.07-.77,.13,.12,.05-.19,.23,.01-.04,.56-.73,1.06-1.18,1.86-1.67,1.49-.91,3.13-1.51,4.84-1.83,3.3-.62,7.16-.07,9.96,1.87,.69,.48,1.07,.82,.2,1.24s-1.99,.49-2.93,.56c-2,.15-4.01-.03-5.94-.57-1.11-.31-2.19-.72-3.21-1.26-.44-.24-.81-.48-1.17-.83-.06-.06-.14-.35-.21-.17-.07,.15,.28-.03,.41-.05,2.67-.3,5.35-.34,8.03-.19,1.93,.11,1.92-2.89,0-3-1.81-.1-3.61-.12-5.42-.03-1.53,.08-3.57,0-4.86,.95-2.78,2.06-.05,5.05,2.09,6.11,2.79,1.38,5.89,2.12,9,2.1,2.42-.01,6.54-.21,7.58-2.92,1.15-2.99-2.31-4.87-4.56-5.79-2.54-1.03-5.36-1.42-8.08-1.14s-5.43,1.14-7.73,2.67c-1.85,1.23-4.64,4.6-1.7,6.39,1.4,.86,3.68,.5,5.25,.45,1.99-.07,3.96-.28,5.93-.58,2.79-.43,7.42-.79,7.74-4.4,.05-.59-.5-1.35-1.1-1.45-5.76-.92-11.6-1.19-17.41-.67-2.81,.25-5.61,.66-8.37,1.24-1.82,.38-5.26,.91-5.1,3.5s4.12,2.96,6.03,3.24c2.63,.38,5.25,.34,7.87-.13,2.22-.4,5.08-1.07,6.81-2.61,1.56-1.4,2.2-4.18-.23-5.1-1.1-.42-2.48-.3-3.64-.3-1.52,0-3.04,.08-4.54,.24-2.7,.29-5.38,.79-7.98,1.55-2.03,.59-5.1,1.18-6.24,3.2-.49,.86-.47,2.1,.28,2.82,.86,.84,3.04,.66,4.16,.74,5.72,.4,11.73,.09,17.32-1.27,1.84-.45,3.97-1.67,3.75-3.86-.24-2.5-3.09-2.99-5.09-3.29-10.75-1.62-21.88,1.69-29.99,8.95-1.25,1.12,.41,3.34,1.82,2.36,1.81-1.27,3.56-2.64,5.19-4.13,1.38-1.26,3.04-2.64,3.97-4.28,.79-1.39,.91-3.28-.58-4.25s-3.88-.6-5.46-.45c-7.37,.69-14.1,4.53-18.45,10.51-.52,.72-.02,2.08,.9,2.2,6.06,.83,12.17,.67,18.17-.58,2.95-.62,5.86-1.48,8.64-2.64,2.29-.95,4.26-2.6,3.88-5.28-.09-.64-.85-1.1-1.45-1.1-11.96-.05-23.62,4.15-32.87,11.71-1.2,.98,.1,2.89,1.46,2.51,5.16-1.44,9.57-4.8,12.33-9.39,.54-.9-.14-2.39-1.3-2.26-4.78,.53-9.34,1.96-13.53,4.33-1.32,.75-.7,2.77,.76,2.8,5.9,.11,11.81-.13,17.68-.78,2.44-.27,4.89-.62,7.23-1.36,2.17-.68,4.85-1.73,6.36-3.52,.68-.81,.95-1.92,.4-2.87s-1.62-1.24-2.66-1.34c-2.79-.28-5.64-.24-8.43-.07s-5.56,.53-8.3,1.06c-1.38,.27-2.75,.58-4.11,.95-1.11,.3-2.33,.55-3.31,1.18-2.1,1.35-1.81,3.75,.16,5.04,2.12,1.39,4.59,2.41,7,3.16,4.49,1.4,10.41,2.4,14.82,.25,3.76-1.83,5.9-7.28,2.28-10.37-3.2-2.73-8.37-2.04-12.08-.9-9.28,2.85-16.39,11.35-17.25,21.04-.11,1.24,1.33,1.73,2.26,1.3,3.26-1.51,6.68-3.17,8.99-6.02,2.15-2.65,3.3-6.13,2.28-9.48-.3-.98-1.32-1.32-2.2-.9-12.97,6.21-18.63,20.57-29.7,29.06l2.05,2.05c1.85-2.39,3.43-4.97,4.68-7.72,.62-1.36,1.17-2.75,1.64-4.17s.96-2.93,.1-4.29c-1.45-2.31-5.19-1.26-7.33-.86-2.87,.54-5.69,1.44-8.3,2.78-4.92,2.53-9.07,6.99-10.35,12.47-.63,2.7-.63,5.71,.62,8.25s3.55,3.98,6.07,4.78c5.19,1.63,11.28,.5,15.77-2.47s7.74-8.08,8.5-13.58c.38-2.74,.33-5.84-1.04-8.32-1.18-2.15-3.38-3.46-5.76-3.86-4.94-.83-10.69,1.16-14.73,3.95-2.63,1.82-4.59,4.23-5.72,7.23s-1.32,6.13-1.36,9.22c-.09,7.73,.14,15.48,.21,23.22,.02,1.71,2.45,2.01,2.95,.4,5.07-16.39,18.06-28.85,23.51-45.1,.53-1.59-2.04-2.72-2.74-1.16-5.57,12.31-13.65,23.32-23.73,32.32l2.12,2.12c5.41-6.76,10.81-13.52,16.46-20.07,2.77-3.22,5.6-6.38,8.51-9.47,1.51-1.6,3.04-3.19,4.6-4.74,1.26-1.25,2.72-2.75,4.59-2.92l-.76-2.8-17.63,10.44,2.05,2.05c2.87-4.4,6.99-7.66,11.83-9.66s10.45-3.23,15.29-5.84l-1.82-2.36c-1.69,2.17-3.53,4.22-5.54,6.11-.95,.89-1.94,1.75-2.95,2.56-.58,.46-1.17,.91-1.77,1.35-.27,.19-1.31,1.15-1.64,.98l.69,1.69c1.23-3.51,2.5-7.17,4.83-10.14,2.58-3.29,6.27-4.68,10.19-5.74,1.86-.5,1.07-3.4-.8-2.89h0Z"/><path class="g" d="M142.96,26.78c5.47,3.97,10.01,9.03,14.51,14.04,1.18,1.32,3.1-.36,2.36-1.82-3.63-7.06-8.58-13.4-14.55-18.63-1.32-1.16-3.06,.27-2.36,1.82,2.48,5.47,6.26,10.29,10.98,14.01,1.25,.99,3.29-.24,2.36-1.82-5.46-9.26-13.09-17.11-22.17-22.85-1.03-.65-2.71,.46-2.2,1.69,1.91,4.67,4.79,8.86,8.55,12.23,1.86,1.67,3.92,3.15,6.12,4.36,1.97,1.08,4.84,2.84,7.14,1.99s2.48-3.49,1.79-5.48c-.77-2.22-2.42-4.25-3.97-5.98-3.36-3.77-7.82-6.65-12.68-8.04-2.67-.76-5.6-1-8.18,.2-2.19,1.01-3.93,3.04-4.11,5.51-.17,2.25,1.07,4.6,3.19,5.47s4.68-.09,6.13-1.88c3.65-4.48-.07-10.67-3.86-13.69-1.95-1.55-4.4-2.65-6.95-2.37-2.7,.3-3.94,2.52-4.03,5.05-.1,2.85,1.04,5.69,2.94,7.79,1.57,1.73,5.23,3.94,6.43,.56,.82-2.33-.36-5.45-1.6-7.42-1.49-2.37-3.67-4.11-6.27-5.1-1-.38-1.81,.58-1.9,1.45-.33,3.05,2.52,5.46,4.58,7.28,2.37,2.09,4.97,3.9,7.76,5.39,1.45,.77,3.12-1.16,1.82-2.36-1.11-1.02-1.98-2.14-2.69-3.46-.4-.74-1.35-.9-2.05-.54l.28-.05-1.82,2.36c1.33,.79,2.53,1.69,3.65,2.75,1.4,1.32,3.53-.79,2.12-2.12-1.3-1.23-2.72-2.3-4.26-3.22s-2.93,1.11-1.82,2.36c.9,1,2.2,1.11,3.36,.52l-2.05-.54c.82,1.53,1.88,2.89,3.16,4.07l1.82-2.36c-2.31-1.23-4.51-2.67-6.51-4.36-.97-.82-1.9-1.68-2.78-2.6s-1.7-1.81-1.56-3.12l-1.9,1.45c3,1.14,5.27,3.97,5.81,7.13,.06,.33,.04,.67,.1,.99,.01,.09,.02,.32-.02,.41,.19-.4,.17-.03-.11-.34-.57-.65-1.34-1.09-1.88-1.82-.99-1.36-1.58-3.03-1.59-4.71,0-.63,0-1.57,.46-2.08,.52-.57,1.58-.44,2.26-.31,1.81,.33,3.36,1.49,4.6,2.79,2.04,2.13,4.84,6.76,1.45,9.03-1.29,.86-2.71,.3-3.15-1.17s.45-2.92,1.72-3.7c3.18-1.97,7.6-.31,10.64,1.23s5.81,3.77,8.02,6.44c.99,1.19,2.12,2.6,2.62,4.09,.12,.35,.44,1.31,.11,1.65-.43,.43-1.73-.28-2.15-.47-7.07-3.02-12.9-8.91-15.81-16.03l-2.2,1.69c8.65,5.48,15.89,12.96,21.1,21.78l2.36-1.82c-4.55-3.59-8.11-8.13-10.51-13.4l-2.36,1.82c5.8,5.07,10.56,11.16,14.08,18.02l2.36-1.82c-4.68-5.21-9.42-10.38-15.11-14.5-1.57-1.13-3.06,1.47-1.51,2.59h0Z"/><path class="g" d="M155.94,33.24c1.4,6.8,5.44,12.77,11.11,16.73,1.1,.77,2.54-.5,2.2-1.69-1.55-5.48-4.84-10.17-9.37-13.6-.76-.58-2.01,.03-2.2,.9-1.26,5.52-.22,11.38,2.99,16.06,.66,.96,1.93,.96,2.59,0,1.63-2.37,2.9-4.98,3.72-7.74,.72-2.43,1.22-5.19-.23-7.45-.81-1.26-2.74-.75-2.8,.76-.14,4,.3,8.03,1.34,11.89,.54,2,1.24,3.94,2.08,5.83,.65,1.48,1.41,3.29,3.15,3.74,1.87,.48,2.84-1.14,3.22-2.68,.51-2.05,.78-4.19,.84-6.31,.08-3.28,.03-7.81-3.15-9.72-.98-.59-2.26,.17-2.26,1.3,.01,4.23,1.47,8.17,3.14,11.99,.75,1.72,1.46,3.51,2.67,4.97,1.01,1.22,2.73,2.39,4.39,1.99,3.43-.82,2.33-6.07,1.08-8.27-1.92-3.4-5.93-3.2-8.47-.59-3.09,3.18-4.53,7.99-4.64,12.33-.03,1.07,1.32,1.97,2.26,1.3,5.09-3.66,8.87-8.73,10.87-14.68l-2.95-.4c-.34,5.07-.87,10.12-1.6,15.15l2.51-.66-16.77-17.23-1.82,2.36c1.99,1.14,3.88,2.44,5.62,3.93,1.42,1.22,3.93,2.98,3.65,5.09l.44-1.06-.2,.16,1.06-.44c.36,.23,.42,.16,.19-.18-.1-.28-.2-.56-.29-.85-.13-.43-.26-.86-.37-1.29-.26-1.02-.46-2.07-.57-3.12-.21-2.09-.13-4.21,.24-6.27h-2.89c1.02,2.89,1.32,5.85,.93,8.9h3c-.18-1.87-.41-4.53,.41-6.3s3.06,.76,3.69,1.5c1.26,1.47,3.37-.66,2.12-2.12-1.75-2.05-4.6-4.16-7.28-2.26-1.22,.86-1.55,2.32-1.77,3.71-.29,1.82-.35,3.64-.18,5.48,.19,1.95,2.75,1.9,3,0,.42-3.27,.06-6.58-1.03-9.69-.45-1.26-2.61-1.58-2.89,0-.58,3.22-.59,6.46,.03,9.68,.29,1.46,.62,3.22,1.41,4.5,.69,1.13,2.19,1.81,3.31,.88s.72-2.71,.19-3.84c-.63-1.35-1.74-2.44-2.81-3.45-2.27-2.14-4.8-3.99-7.5-5.54-1.48-.85-3.01,1.13-1.82,2.36l16.77,17.23c.72,.74,2.34,.49,2.51-.66,.77-5.29,1.34-10.61,1.71-15.95,.12-1.76-2.43-1.93-2.95-.4-1.73,5.16-5.07,9.71-9.49,12.89l2.26,1.3c.09-3.37,1.12-6.93,3.23-9.61,.77-.98,2.23-2.38,3.54-1.51,.99,.66,1.32,2.19,1.45,3.28,.04,.33,.12,1.43-.02,1.49-.25,.1-1.28-1.02-1.44-1.22-.95-1.22-1.51-2.77-2.12-4.17-1.49-3.4-2.81-6.93-2.82-10.69l-2.26,1.3c2.02,1.21,1.72,5.15,1.67,7.13-.04,1.54-.21,3.07-.52,4.58-.08,.39-.17,.78-.27,1.16-.04,.18-.09,.35-.14,.53l.62-.19s-.88-1.42-.93-1.54c-2.49-5.31-3.58-11.18-3.38-17.02l-2.8,.76c1.13,1.76,.27,4.15-.33,5.96-.74,2.22-1.83,4.28-3.16,6.2h2.59c-2.76-4.03-3.78-8.97-2.69-13.75l-2.2,.9c3.88,2.94,6.66,7.14,7.99,11.8l2.2-1.69c-5.05-3.53-8.49-8.93-9.73-14.94-.39-1.89-3.28-1.09-2.89,.8h0Z"/><path class="g" d="M56.67,44.96c-1.01,3.5-3.86,6.22-7.46,6.9-1.97,.37-4.12,.11-5.93-.77-.74-.36-1.5-.81-2-1.49-.66-.89-.5-2.09-.39-3.13,.44-4.05,1.88-8.09,3.81-11.66,1.65-3.05,3.82-6.02,6.75-7.95,2.62-1.73,6.14-2.82,9.14-1.39,1.25,.59,2.33,1.67,2.32,3.13-.01,1.57-1.27,2.81-2.54,3.56-2.92,1.72-7.1,1.36-9.69-.84-1.23-1.04-2.39-2.8-1.65-4.45,.61-1.36,2.24-2.12,3.57-2.59,4.38-1.55,9.24-2.16,13.86-2.31,5.04-.16,10.04,.37,14.93,1.58,1.87,.46,2.67-2.43,.8-2.89-5.51-1.36-11.21-1.93-16.88-1.64-2.74,.14-5.49,.49-8.18,1.02-2.41,.47-4.88,1.01-7.09,2.09-1.82,.89-3.49,2.34-4.04,4.36-.62,2.28,.36,4.63,1.9,6.31,3.07,3.36,8.56,4.32,12.69,2.59,3.82-1.6,6.94-5.92,4.42-9.96-2.29-3.67-7.41-4.2-11.2-3.01-4.37,1.38-7.76,4.71-10.25,8.45-2.76,4.16-4.73,9.15-5.47,14.09-.44,2.93-.5,5.69,2.03,7.68,2.17,1.71,5.11,2.49,7.84,2.37,5.47-.24,10.09-4.02,11.61-9.25,.54-1.86-2.36-2.65-2.89-.8h0Z"/><path class="g" d="M141.44,16.7c-1.95,3.01-6.69,3.17-9.01,.55l-.66,2.51c4.73-1.01,9.56,2.5,10.41,7.18l2.51-1.46c.05,.05,.14,.3,.12,.04-.01-.14,.11,.05-.02,.04l-1.5-1.5,.55-.87-.29-.06c-.12-.09-.69-.17-.8-.2-.53-.14-1.05-.31-1.56-.49-1.04-.37-2.05-.82-3.04-1.31-1.99-.98-3.9-2.11-5.85-3.17-4.08-2.2-8.23-3.6-12.84-4.12-9.8-1.1-20.06-.21-29.75,1.42-5.64,.95-11.2,2.28-16.65,3.97l1.9,1.45c-.24-5.85,6.21-8.12,10.99-8.48,.72-.05,2.4-.45,2.28,.71-.11,1.08-1.6,1.68-2.48,1.99-2.65,.92-5.57,.68-8.05-.61l.54,2.05c.31-.62,.71-.89,1.42-.86l-1.06-2.56-2.54,2.27,2.12,2.12c.71-.87,1.53-1.61,2.55-2.1,.02,0,.94-.4,.62-.53,.04,.02-.06,.34-.07,.36-.16,.39-.38,.75-.63,1.09-1.25,1.68-3.17,2.81-5.12,3.49-4.94,1.72-10.29,.91-15.42,1.28l1.45,1.1c-.33-1.79,3.76-3.51,4.99-4.1,2.17-1.04,4.5-1.74,6.86-2.15,4.6-.81,9.42-.37,13.81,1.24,1.78,.65,4.72,1.68,5.37,3.69,.73,2.27-1.73,4.58-3.39,5.73-1.88,1.31-4.03,2.09-6.26,2.57-1.07,.23-2.15,.38-3.24,.47-.58,.05-1.16,.08-1.74,.1-.25,0-.52,0-.77,.02-.48,.04-.53,.2-.68-.13-.29-.67,.44-2.27,.71-2.88,.41-.93,.97-1.81,1.62-2.57,1.35-1.57,3.09-2.82,5.02-3.57,4.54-1.78,9.61-.66,13.68,1.77,1.01,.6,1.97,1.27,2.86,2.03,.79,.67,2.29,1.74,2.28,2.91,0,2.04-3.69,2.56-5.11,2.65-2.53,.16-5.1-.36-7.33-1.58-1.96-1.07-3.94-2.67-2.38-4.97,1.4-2.07,3.99-3.18,6.25-4.02,2.5-.93,5.1-1.55,7.71-2.04,5.69-1.08,11.49-1.59,17.29-1.57,2.55,0,5.37-.13,7.87,.43,.65,.15,1.72,.39,2.07,1.04,.52,.95-.84,2.24-1.42,2.87-3.21,3.57-7.65,5.76-12.24,6.95-5.58,1.44-11.4,1.47-17.12,1.43-2.81-.02-5.66-.03-8.43-.54-2.12-.4-4.92-1.01-6.25-2.91-1.25-1.78,.31-3.43,1.83-4.31,2.1-1.21,4.68-1.66,7.04-2.04,5.38-.86,11.16-.72,16.53,.23,3.88,.69,8.67,2.75,7.18,7.59s-7.57,6.18-12.06,6.66c-2.83,.3-5.68,.35-8.51,.14-2-.14-4.4-.31-6.06-1.58-1.97-1.51-.87-3.96,.89-5.12,2.19-1.46,5.15-2.01,7.7-2.45,2.82-.48,5.69-.58,8.54-.39v-3l-2.47-.03c-1.93-.02-1.93,2.98,0,3l2.47,.03c1.95,.02,1.91-2.87,0-3-3.75-.25-7.52,.04-11.19,.86-3.07,.69-6.62,1.64-8.63,4.26-1.77,2.29-1.91,5.47,.18,7.61,1.85,1.89,4.65,2.42,7.16,2.68,3.61,.38,7.27,.32,10.87-.13,3.11-.39,6.29-1.01,9.02-2.63,4.78-2.84,7.58-9.69,3.1-14.11-1.91-1.89-4.63-2.78-7.21-3.26-3.4-.62-6.93-.88-10.39-.88s-7.18,.35-10.67,1.16c-2.65,.62-5.5,1.54-7.34,3.67s-1.89,4.97-.13,7.11c1.93,2.36,5.18,3.3,8.07,3.79,3.52,.6,7.1,.58,10.66,.58s7.27-.1,10.87-.57c6.35-.84,12.72-2.99,17.48-7.43,1.93-1.8,4.71-4.68,3.25-7.54-1.17-2.3-4.07-2.8-6.4-2.96-7.34-.53-14.75-.14-22.01,1.04-3.4,.55-6.81,1.25-10.05,2.45-2.93,1.09-5.94,2.48-7.83,5.08-4.58,6.32,4.24,10.74,9.43,11.31,2.82,.31,6.16,0,8.53-1.7,2.55-1.83,2.84-4.82,.83-7.21-3.87-4.59-10.62-7.59-16.61-7.23-5.39,.32-10.74,3.49-13.04,8.48-.96,2.07-2.21,6.05,.61,7.25,1.35,.58,3.21,.27,4.64,.14,1.55-.14,3.09-.36,4.6-.74,2.82-.7,5.51-1.94,7.71-3.85s4.17-4.92,3.28-7.97c-.82-2.8-3.71-4.25-6.2-5.29-2.77-1.16-5.7-1.85-8.69-2.12-5.94-.53-12.1,.77-17.29,3.74-2.46,1.41-5.23,3.37-4.64,6.58,.11,.6,.84,1.15,1.45,1.1,6.86-.5,14.54,.84,20.44-3.56,1.92-1.43,4.88-4.43,3.44-7.07-1.82-3.33-6.42,.07-7.94,1.92-1.21,1.48,.66,3.43,2.12,2.12l2.54-2.27c1.02-.91,.16-2.51-1.06-2.56-1.69-.08-3.25,.82-4.01,2.34-.35,.7-.22,1.66,.54,2.05,3.65,1.9,8.09,2.15,11.83,.31,1.5-.73,2.85-1.97,3.15-3.68s-.5-3.52-2.2-4.12c-1.8-.64-4.14-.14-5.96,.17-1.92,.33-3.83,.93-5.53,1.91-3.26,1.88-5.68,5.35-5.53,9.21,.04,.94,.93,1.75,1.9,1.45,10.19-3.16,20.74-5.04,31.39-5.53,5.08-.23,10.35-.37,15.39,.4s8.86,2.84,13.08,5.17c2.09,1.15,12.16,7.08,12.59,1.89,.07-.82-.74-1.48-1.5-1.5-2.63-.06-3.87,3.16-2.22,5.04,1.08,1.23,2.75-.12,2.51-1.46-1.14-6.35-7.88-10.6-14.1-9.27-1.17,.25-1.36,1.72-.66,2.51,3.65,4.12,10.78,3.39,13.72-1.16,1.05-1.63-1.54-3.13-2.59-1.51h0Z"/><path d="M85.64,133.68c-.41,6.4-1.19,12.77-2.36,19.07-.35,1.89,2.54,2.7,2.89,.8,1.22-6.57,2.05-13.2,2.47-19.87,.12-1.93-2.88-1.92-3,0h0Z"/><path d="M101.44,131.7l-3.32,15.16c-1.03,4.72-1.86,9.56-3.71,14.05-.73,1.78,2.17,2.56,2.89,.8,1.85-4.49,2.68-9.32,3.71-14.05l3.32-15.16c.41-1.88-2.48-2.69-2.89-.8h0Z"/><path d="M120.14,131.69l-7.73,30.84c-.47,1.87,2.42,2.67,2.89,.8l7.73-30.84c.47-1.87-2.42-2.67-2.89-.8h0Z"/><path d="M132.81,132.38c.95,7.49,0,15.02-2.78,22.04-.71,1.79,2.19,2.57,2.89,.8,2.87-7.22,3.87-15.13,2.89-22.84-.1-.81-.62-1.49-1.5-1.5-.73,0-1.6,.7-1.5,1.5h0Z"/><path d="M70.12,135.02c6.92,7.42,16.81,10.75,26.66,11.88,11.02,1.26,22.52,.29,32.77-4.1,5.73-2.45,10.98-5.89,15.56-10.1,1.42-1.31-.7-3.43-2.12-2.12-7.64,7.04-17.36,11.67-27.65,13.15-9.84,1.42-20.66,.92-30.07-2.44-4.94-1.77-9.46-4.54-13.04-8.38-1.32-1.42-3.44,.71-2.12,2.12h0Z"/><path class="g" d="M101.04,191.41c1.15,1.7-.41,3.82-2.27,3.98-2.74,.24-4.79-2.09-5.91-4.29-.31-.62-.58-1.25-.82-1.9-.12-.32-.21-.66-.34-.97-.15-.35-.22-.37-.05-.53,.34-.32,1.46-.26,1.89-.25,.63,.03,1.24,.17,1.79,.48,.94,.53,1.74,1.72,1.43,2.83-.23,.85-1.29,1.55-2.14,1.12l.69,.9c-.44-2.13,.98-4.22,2.84-5.15,2.2-1.1,5.03-.82,7.24,.11,1.61,.68,4.09,2.52,3.22,4.58-.33,.78-1.08,1.28-1.79,1.66-.46,.25-.93,.44-1.42,.61-.28,.09-.55,.18-.83,.27l-.33,.09c-.36,.06-.4,.09-.11,.1l.18,.02c0-.19,0-.38,0-.57,.02-.2,.09-.43,.15-.62,.13-.38,.34-.74,.58-1.08,.62-.87,1.5-1.59,2.38-2.19,1.58-1.08,4-2.86,6.01-2.53,2.72,.45,.92,3.78-.14,5.1-.54,.68-1.52,1.41-2.45,1.08s-.8-1.42-.48-2.12c.93-2.04,4.17-2.08,6.05-2.11,2.35-.04,5.07,.37,6.41,2.54,2.94,4.77-5.99,6.97-9.02,6.99-1.09,0-2.35,.06-2.75-1.15-.34-1.03-.18-2.31,.1-3.33,.63-2.28,2.22-4.14,4.29-5.26,3.5-1.9,10.66-2.04,11.99,2.75,.68,2.45-1.4,4.28-3.61,4.79-2.83,.65-5.91-.56-8.52-1.54-4.89-1.84-9.69-4.61-12.71-8.99l-.54,2.05c2.19-1.56,4.05,1.18,4.69,3,.36,1,.91,2.59,.07,3.49-.69,.74-1.98,.76-2.91,.78-5.45,.09-10.79-1.63-15.31-4.64l-.36,2.74c3.74-1.54,8.91-2.17,12.62-.15,.28,.15,.82,.41,.92,.73,.15,.43-.15,.56-.53,.84-.8,.6-1.74,1.03-2.69,1.33-2.01,.64-4.13,.79-6.22,.75-1.77-.04-4-.23-5.21-1.71-1-1.22-.98-2.96-.46-4.37,1.36-3.71,6.08-4.45,9.5-3.79,.88,.17,2.29,.45,2.58,1.46s-1.38,1.2-2.11,1.32c-2.41,.4-4.85-.16-6.92-1.43l.3,2.36c1.17-1.41,3.06-1.36,4.75-1.3,1.96,.07,3.92,.2,5.86,.39,4.06,.4,8.1,1.27,11.63,3.39l-.3-2.36c-1.49,1.26-3.93,1.36-5.49,.15s-3.64,.94-2.12,2.12c2.93,2.28,6.87,2.26,9.73-.15,.76-.64,.46-1.89-.3-2.36-4.12-2.48-8.84-3.4-13.57-3.84-2.21-.2-4.48-.42-6.71-.36-2.07,.05-4.22,.53-5.6,2.19-.62,.74-.58,1.82,.3,2.36,2.71,1.65,5.9,2.28,9.03,1.76,1.38-.23,2.92-.62,3.83-1.76s.93-2.69,.32-3.96c-1.31-2.73-4.99-3.24-7.69-3.2-2.84,.03-5.77,.88-7.85,2.88-1.83,1.76-2.77,4.44-2.45,6.96,.36,2.87,2.38,4.92,5.11,5.73s6.21,.64,9.1,.09c2.44-.47,6.45-1.77,7.19-4.51,.97-3.61-3.86-5.15-6.47-5.61-3.66-.64-7.43-.28-10.87,1.14-1.19,.49-1.5,1.98-.36,2.74,3.18,2.12,6.76,3.65,10.5,4.42,3.1,.64,7.5,1.42,10.4-.29,3.34-1.96,2.31-6.42,.75-9.22s-5.24-4.81-8.19-2.72c-.62,.44-1.03,1.34-.54,2.05,2.61,3.77,6.26,6.57,10.35,8.58s9.14,4.21,13.76,3.43c4.14-.7,7.61-4.63,6.11-8.93s-6.58-6.19-10.96-5.77-8.75,3.03-10.55,7.36c-.83,2-1.18,4.47-.43,6.55,.82,2.26,2.87,2.95,5.09,2.99,4.24,.09,9.79-1.38,12.11-5.27,2.51-4.22-.96-8.77-5.17-9.85-2.3-.59-4.81-.51-7.14-.13-2.08,.34-4.24,1.26-5.32,3.17-.94,1.68-1.01,3.98,.3,5.48,1.39,1.59,3.77,1.68,5.55,.73,1.92-1.03,3.01-3.12,3.76-5.08,.81-2.13,.5-4.41-1.52-5.71-3.72-2.41-8.76,.88-11.63,3.33-1.45,1.24-2.67,2.86-2.95,4.79-.33,2.36,.87,4.45,3.48,3.87,3.73-.83,8.23-3.77,6.59-8.2-1.55-4.21-6.97-6.1-11.1-5.69s-8.49,3.82-8.1,8.48c.09,1.12,.38,1.89,1.5,2.29,.93,.34,1.97,.31,2.9-.02,1.94-.7,3.27-2.54,3.17-4.63-.21-4.7-5.89-6.97-9.81-4.99-2.44,1.23-1.27,3.88-.48,5.82,.88,2.14,2.06,4.2,3.92,5.63,3.24,2.49,8.42,2.59,10.4-1.51,.8-1.66,.84-3.62-.21-5.18s-3.67-.09-2.59,1.51h0Z"/></g></g></svg>