<?xml version="1.0" encoding="UTF-8"?><svg xmlns="http://www.w3.org/2000/svg" viewBox="0 0 275.31 322.3"><defs><style>.d{fill:#008a03;}.e{fill:#754c24;stroke-width:9px;}.e,.f{stroke:#b36a15;stroke-miterlimit:10;}.f{fill:#f7931e;stroke-width:11px;}</style></defs><g id="a"/><g id="b"><g id="c"><polygon class="f" points="56.89 182.18 71.92 311.6 182.92 316.6 212.94 182.18 56.89 182.18"/><ellipse class="e" cx="134.92" cy="173.1" rx="87" ry="20.5"/><path class="d" d="M108.08,160.36l-33.85-50.66L40.51,59.24,21.5,30.79c-1.07-1.6-3.67-.1-2.59,1.51l33.85,50.66,33.72,50.45,19.01,28.45c1.07,1.6,3.67,.1,2.59-1.51h0Z"/><path class="d" d="M114.81,166.34l-20.96-56.13-20.87-55.9-11.79-31.58c-.67-1.79-3.57-1.02-2.89,.8l20.96,56.13,20.87,55.9,11.79,31.58c.67,1.79,3.57,1.02,2.89-.8h0Z"/><path class="d" d="M115.79,157.94l-24.47-55-24.47-55-13.81-31.04c-.78-1.76-3.37-.24-2.59,1.51l24.47,55,24.47,55,13.81,31.04c.78,1.76,3.37,.24,2.59-1.51h0Z"/><path class="d" d="M105.84,170.19l-40.37-45.21L25.28,79.95,2.52,54.46c-1.29-1.44-3.4,.68-2.12,2.12l40.37,45.21,40.2,45.03,22.76,25.49c1.29,1.44,3.4-.68,2.12-2.12h0Z"/><path class="d" d="M104.97,166.6l-39.41-46.16L26.3,74.48,4.08,48.45c-1.26-1.47-3.37,.66-2.12,2.12l39.41,46.16,39.25,45.97,22.22,26.02c1.26,1.47,3.37-.66,2.12-2.12h0Z"/><path class="d" d="M112.1,165.33l-29.54-53.06-29.42-52.84-16.65-29.91c-.94-1.69-3.53-.18-2.59,1.51l29.54,53.06,29.42,52.84,16.65,29.91c.94,1.69,3.53,.18,2.59-1.51h0Z"/><path class="d" d="M109.35,164.76l-36.25-48.96-36.1-48.76-20.35-27.49c-1.14-1.53-3.74-.04-2.59,1.51l36.25,48.96,36.1,48.76,20.35,27.49c1.14,1.53,3.74,.04,2.59-1.51h0Z"/><path class="d" d="M105.13,163.84l-38.11-47.43L29.07,69.18,7.67,42.55c-1.21-1.5-3.32,.63-2.12,2.12l38.11,47.43,37.95,47.23,21.4,26.63c1.21,1.5,3.32-.63,2.12-2.12h0Z"/><path class="d" d="M113.24,159.18l-26.92-54.16-26.92-54.16-15.13-30.44c-.86-1.73-3.45-.21-2.59,1.51l26.92,54.16,26.92,54.16,15.13,30.44c.86,1.73,3.45,.21,2.59-1.51h0Z"/><path class="d" d="M124.15,155.43l-8.39-60.35-8.36-60.1L102.69,1.09c-.26-1.9-3.16-1.09-2.89,.8l8.39,60.35,8.36,60.1,4.71,33.89c.26,1.9,3.16,1.09,2.89-.8h0Z"/><path class="d" d="M127.68,163.75l5.6-59.66,5.58-59.41,3.15-33.56c.18-1.92-2.82-1.91-3,0l-5.6,59.66-5.58,59.41-3.15,33.56c-.18,1.92,2.82,1.91,3,0h0Z"/><path class="d" d="M132.19,157.02l1.95-60.17,1.95-60.17,1.1-33.95c.06-1.93-2.94-1.93-3,0l-1.95,60.17-1.95,60.17-1.1,33.95c-.06,1.93,2.94,1.93,3,0h0Z"/><path class="d" d="M117.93,163.68l-16.62-58.29-16.56-58.05-9.37-32.86c-.53-1.85-3.42-1.07-2.89,.8l16.62,58.29,16.56,58.05,9.37,32.86c.53,1.85,3.42,1.07,2.89-.8h0Z"/><path class="d" d="M118.71,160.07l-15.36-58.72-15.29-58.48-8.66-33.11c-.49-1.87-3.38-1.07-2.89,.8l15.36,58.72,15.29,58.48,8.66,33.11c.49,1.87,3.38,1.07,2.89-.8h0Z"/><path class="d" d="M125.66,162.06l-3.46-60.63-3.45-60.38-1.95-34.18c-.11-1.92-3.11-1.93-3,0l3.46,60.63,3.45,60.38,1.95,34.18c.11,1.92,3.11,1.93,3,0h0Z"/><path class="d" d="M123.37,159.95l-11.29-59.86-11.24-59.61-6.34-33.61c-.36-1.89-3.25-1.09-2.89,.8l11.29,59.86,11.24,59.61,6.34,33.61c.36,1.89,3.25,1.09,2.89-.8h0Z"/><path class="d" d="M120.06,157.66l-13.63-59.3-13.57-59.05-7.65-33.29c-.43-1.88-3.33-1.08-2.89,.8l13.63,59.3,13.57,59.05,7.65,33.29c.43,1.88,3.33,1.08,2.89-.8h0Z"/><path class="d" d="M129.37,157.02l-.62-60.48-.62-60.48-.35-33.99c-.02-1.93-3.02-1.93-3,0l.62,60.48,.62,60.48,.35,33.99c.02,1.93,3.02,1.93,3,0h0Z"/><path class="d" d="M138.51,159.7l14.74-59.12,14.68-58.88,8.28-33.2c.47-1.87-2.43-2.67-2.89-.8l-14.74,59.12-14.68,58.88-8.28,33.2c-.47,1.87,2.43,2.67,2.89,.8h0Z"/><path class="d" d="M138.62,168.7l27.46-53.25,27.35-53.03,15.45-29.96c.88-1.71-1.7-3.23-2.59-1.51l-27.46,53.25-27.35,53.03-15.45,29.96c-.88,1.71,1.7,3.23,2.59,1.51h0Z"/><path class="d" d="M145.33,164.14l24.27-55.09,24.27-55.09,13.69-31.09c.77-1.75-1.81-3.28-2.59-1.51l-24.27,55.09-24.27,55.09-13.69,31.09c-.77,1.75,1.81,3.28,2.59,1.51h0Z"/><path class="d" d="M129.72,164.63l6.33-60.28,6.31-60.03,3.57-33.98c.2-1.92-2.8-1.9-3,0l-6.33,60.28-6.31,60.03-3.57,33.98c-.2,1.92,2.8,1.9,3,0h0Z"/><path class="d" d="M131.78,161.57l7.67-60.21,7.64-59.96,4.33-33.95c.24-1.91-2.76-1.89-3,0l-7.67,60.21-7.64,59.96-4.33,33.95c-.24,1.91,2.76,1.89,3,0h0Z"/><path class="d" d="M137.54,166.02l19.42-57.54,19.34-57.3,10.95-32.44c.62-1.83-2.28-2.62-2.89-.8l-19.42,57.54-19.34,57.3-10.95,32.44c-.62,1.83,2.28,2.62,2.89,.8h0Z"/><path class="d" d="M136.1,163.6l11.87-59.75,11.82-59.5,6.67-33.55c.37-1.89-2.52-2.69-2.89-.8l-11.87,59.75-11.82,59.5-6.67,33.55c-.37,1.89,2.52,2.69,2.89,.8h0Z"/><path class="d" d="M133.88,160.23l9.49-60.1,9.45-59.85,5.33-33.74c.3-1.89-2.59-2.7-2.89-.8l-9.49,60.1-9.45,59.85-5.33,33.74c-.3,1.89,2.59,2.7,2.89,.8h0Z"/><path class="d" d="M142.86,162.73l22-56.34,22-56.34,12.36-31.66c.7-1.8-2.2-2.58-2.89-.8l-22,56.34-22,56.34-12.36,31.66c-.7,1.8,2.2,2.58,2.89,.8h0Z"/><path class="d" d="M152.74,168.59l39.04-46.79,38.88-46.59,21.92-26.27c1.23-1.47-.88-3.61-2.12-2.12l-39.04,46.79-38.88,46.59-21.92,26.27c-1.23,1.47,.88,3.61,2.12,2.12h0Z"/><path class="d" d="M148.91,176.72l47.93-35.96,47.73-35.81,26.96-20.23c1.53-1.14,.03-3.75-1.51-2.59l-47.93,35.96-47.73,35.81-26.96,20.23c-1.53,1.14-.03,3.75,1.51,2.59h0Z"/><path class="d" d="M157.23,175.3l45.85-39.01,45.85-39.01,25.88-22.01c1.47-1.25-.66-3.37-2.12-2.12l-45.85,39.01-45.85,39.01-25.88,22.01c-1.47,1.25,.66,3.37,2.12,2.12h0Z"/><path class="d" d="M142.69,169.23l31.97-51.49,31.84-51.28,18.03-29.03c1.02-1.64-1.57-3.15-2.59-1.51l-31.97,51.49-31.84,51.28-18.03,29.03c-1.02,1.64,1.57,3.15,2.59,1.51h0Z"/><path class="d" d="M145.88,167.38l33.15-50.85,33.01-50.64,18.69-28.67c1.06-1.62-1.54-3.13-2.59-1.51l-33.15,50.85-33.01,50.64-18.69,28.67c-1.06,1.62,1.54,3.13,2.59,1.51h0Z"/><path class="d" d="M149.11,173.86l42.55-43.32,42.38-43.14,23.99-24.42c1.35-1.38-.77-3.5-2.12-2.12l-42.55,43.32-42.38,43.14-23.99,24.42c-1.35,1.38,.77,3.5,2.12,2.12h0Z"/><path class="d" d="M149.11,170.75l36.72-48.6,36.57-48.4,20.62-27.29c1.16-1.54-1.44-3.04-2.59-1.51l-36.72,48.6-36.57,48.4-20.62,27.29c-1.16,1.54,1.44,3.04,2.59,1.51h0Z"/><path class="d" d="M148.58,166.75l34.73-49.95,34.59-49.75,19.5-28.05c1.1-1.59-1.49-3.09-2.59-1.51l-34.73,49.95-34.59,49.75-19.5,28.05c-1.1,1.59,1.49,3.09,2.59,1.51h0Z"/><path class="d" d="M155.33,173.21l44.36-41.12,44.36-41.12,24.93-23.11c1.42-1.32-.71-3.43-2.12-2.12l-44.36,41.12-44.36,41.12-24.93,23.11c-1.42,1.32,.71,3.43,2.12,2.12h0Z"/></g></g></svg>